<svg width="21" height="21" viewBox="0 0 21 21" fill="none" xmlns="http://www.w3.org/2000/svg">
<path fill-rule="evenodd" clip-rule="evenodd" d="M5.97587 1.35164C7.12041 0.483699 8.62635 0 10.5489 0C12.486 0 13.9787 0.523407 15.0836 1.45384C16.1763 2.37402 16.7906 3.60897 17.1374 4.85736C17.6829 6.82115 17.6146 9.07362 17.569 10.5783C17.5583 10.9311 17.5489 11.2428 17.5489 11.5C17.5489 12.2242 18.1016 12.964 18.8891 13.6424C19.2128 13.9213 19.524 14.1465 19.7784 14.3307C19.8131 14.3558 19.8468 14.3802 19.8792 14.4038L19.892 14.4131C19.9958 14.4884 20.1612 14.6087 20.2749 14.7238C20.3091 14.7584 20.3754 14.8284 20.4369 14.9264C20.4782 14.9922 20.6417 15.2589 20.5867 15.6286C20.5145 16.1134 20.1539 16.3475 19.944 16.4284C19.7641 16.4978 19.6061 16.5 19.5489 16.5H1.32984C1.29393 16.5124 1.25126 16.525 1.20355 16.5348C1.14202 16.5475 1.01214 16.5689 0.849554 16.5441C0.672831 16.5171 0.410748 16.4252 0.212161 16.171C0.0214515 15.927 -0.00415695 15.6686 0.00048512 15.5229C0.00504207 15.3799 0.0394154 15.2708 0.058417 15.2176C0.0967808 15.1102 0.145158 15.0343 0.160267 15.0108C0.181951 14.977 0.201541 14.9509 0.213234 14.9358C0.236817 14.9053 0.25814 14.8812 0.269934 14.8681C0.295166 14.84 0.321064 14.8136 0.341759 14.7929L0.634652 14.5H0.696194C0.935283 14.2796 1.27588 13.9494 1.62857 13.5695C2.01658 13.1517 2.39782 12.6967 2.67569 12.2765C2.81433 12.0669 2.91479 11.8844 2.97804 11.7345C3.00915 11.6607 3.02786 11.6027 3.03835 11.5599C3.04843 11.5187 3.04887 11.4999 3.04887 11.4999C3.04887 11.3028 3.04691 11.0893 3.04482 10.8618C3.02934 9.17148 3.00685 6.71631 3.72792 4.61318C4.14758 3.38918 4.8376 2.21483 5.97587 1.35164ZM3.48064 14.5H16.8962C16.2118 13.7639 15.5489 12.747 15.5489 11.5C15.5489 11.1505 15.5596 10.7676 15.571 10.3614C15.6133 8.85494 15.6645 7.02761 15.2103 5.39264C14.9321 4.39103 14.4839 3.56348 13.7954 2.98366C13.119 2.41409 12.1117 2 10.5489 2C8.97138 2 7.91482 2.3913 7.18436 2.94524C6.44764 3.50392 5.95016 4.29832 5.61981 5.26182C5.01926 7.01342 5.03368 9.09222 5.04567 10.8194C5.04729 11.0533 5.04887 11.2807 5.04887 11.5C5.04887 12.1933 4.67583 12.8778 4.34392 13.3797C4.0894 13.7646 3.78578 14.1477 3.48064 14.5Z" fill="black"/>
<path d="M13.5488 18C13.5488 18.7956 13.2328 19.5587 12.6701 20.1213C12.1075 20.6839 11.3445 21 10.5488 21C9.75318 21 8.99012 20.6839 8.42751 20.1213C7.8649 19.5587 7.54883 18.7956 7.54883 18L10.5488 18H13.5488Z" fill="black"/>
</svg>
