<svg width="18" height="18" viewBox="0 0 18 18" fill="none" xmlns="http://www.w3.org/2000/svg">
<path fill-rule="evenodd" clip-rule="evenodd" d="M1.5 9C1.5 8.17159 2.17157 7.5 3 7.5C3.82841 7.5 4.5 8.17159 4.5 9C4.5 9.82841 3.82841 10.5 3 10.5C2.17157 10.5 1.5 9.82841 1.5 9ZM7.5 9C7.5 8.17159 8.17159 7.5 9 7.5C9.82841 7.5 10.5 8.17159 10.5 9C10.5 9.82841 9.82841 10.5 9 10.5C8.17159 10.5 7.5 9.82841 7.5 9ZM13.5 9C13.5 8.17159 14.1716 7.5 15 7.5C15.8284 7.5 16.5 8.17159 16.5 9C16.5 9.82841 15.8284 10.5 15 10.5C14.1716 10.5 13.5 9.82841 13.5 9Z" fill="black"/>
</svg>
