<svg width="24" height="24" viewBox="0 0 24 24" fill="none" xmlns="http://www.w3.org/2000/svg">
<path fill-rule="evenodd" clip-rule="evenodd" d="M20.8904 4.90761C20.7443 4.65538 20.4741 4.5 20.1818 4.5H3.8182C3.49429 4.5 3.20087 4.69039 3.06989 4.98556C2.93891 5.28073 2.99503 5.6251 3.21301 5.86382L7.48391 10.5411C7.71015 10.7889 8.0655 10.8736 8.37983 10.7546L14.3114 8.50823C14.3804 8.48213 14.4117 8.49293 14.4254 8.49833C14.4493 8.50778 14.4836 8.53238 14.5104 8.57775C14.5373 8.62313 14.5424 8.6649 14.5391 8.69033C14.5373 8.70488 14.5316 8.73742 14.4754 8.78497L9.60533 12.9007C9.35438 13.1128 9.25538 13.4541 9.354 13.7669L11.2195 19.6793C11.3168 19.9877 11.588 20.2097 11.9106 20.2451C12.2332 20.2804 12.5463 20.1224 12.7086 19.8424L20.8904 5.72283C21.0365 5.47061 21.0365 5.15984 20.8904 4.90761Z" fill="white"/>
</svg>
