<svg width="24" height="24" viewBox="0 0 24 24" fill="none" xmlns="http://www.w3.org/2000/svg">
<path fill-rule="evenodd" clip-rule="evenodd" d="M3.07313 4.97394C3.20579 4.68534 3.49716 4.5 3.8182 4.5H20.1818C20.4735 4.5 20.743 4.65327 20.8895 4.90229C21.0359 5.15131 21.0369 5.45843 20.8922 5.70842L12.7104 19.8431C12.5492 20.1216 12.2361 20.2796 11.9129 20.2454C11.5898 20.2112 11.3176 19.9915 11.2198 19.6856L8.81685 12.1738L3.20245 5.83956C2.99105 5.60105 2.94047 5.26254 3.07313 4.97394ZM10.5179 12.1268L12.2172 17.4391L18.772 6.11538H5.62127L9.70575 10.7235L14.4956 7.81373C14.6879 7.6968 14.9399 7.75605 15.0584 7.94603L15.4871 8.63385C15.6056 8.82383 15.5456 9.0726 15.3531 9.18945L10.5179 12.1268Z" fill="#161823"/>
</svg>
