<?xml version="1.0" encoding="utf-8"?>
<!-- Generator: Adobe Illustrator 26.0.1, SVG Export Plug-In . SVG Version: 6.00 Build 0)  -->
<svg version="1.1" id="Layer_1" xmlns="http://www.w3.org/2000/svg" xmlns:xlink="http://www.w3.org/1999/xlink" x="0px" y="0px"
	 viewBox="0 0 400 300" style="enable-background:new 0 0 400 300;" xml:space="preserve">
<style type="text/css">
	.st0{fill:#FDE8EE;}
	.st1{fill:#180308;}
	.st2{fill:#EE1D52;}
	.st3{fill:#FFFFFF;}
	.st4{fill:#231F20;}
</style>
<g id="_016">
	<ellipse class="st0" cx="190.7" cy="274.3" rx="188.7" ry="14"/>
	<path class="st1" d="M315.4,86.3c11.7-0.2,21.3,9.1,21.5,20.8l0,0v145.2c-0.1,10.1-8.4,18.1-18.5,17.9H113.8
		c-10.1,0.1-18.3-7.9-18.5-17.9v-170c0.1-10.1,8.4-18.1,18.5-17.9h78.9c12.5,0,22.7,9.8,22.7,22L315.4,86.3L315.4,86.3z"/>
	<path class="st1" d="M318.5,270.8H113.8c-10.3,0.1-18.9-8.1-19.1-18.5V82.2c0.1-10.3,8.7-18.7,19.1-18.5h78.9
		c12.6,0,23,9.8,23.2,22h99.5c12.1,0,22.1,9.6,22.1,21.4v145.2C337.3,262.7,328.8,271.1,318.5,270.8z M113.8,65
		c-9.7-0.1-17.7,7.7-17.9,17.2v170.1c0.1,9.7,8.1,17.5,17.9,17.2h204.6c9.7,0.1,17.7-7.7,17.9-17.2V107.1C336.3,96,327,87,315.4,87
		h-99.9c-0.4,0-0.6-0.2-0.6-0.6c0-11.8-9.8-21.4-22.1-21.4H113.8z"/>
	<polygon class="st2" points="128.7,246.4 128.7,20.3 279.5,20.3 314.7,55.5 314.7,242.6 	"/>
	<path class="st3" d="M296,67.2H144.1c-0.4,0-0.6-0.2-0.6-0.6l0,0c0-0.4,0.2-0.6,0.6-0.6H296c0.4,0,0.6,0.2,0.6,0.6
		C296.6,66.9,296.4,67.2,296,67.2L296,67.2z"/>
	<path class="st3" d="M296,91.5H144.1c-0.4,0-0.6-0.2-0.6-0.6c0-0.4,0.2-0.6,0.6-0.6H296c0.4,0,0.6,0.2,0.6,0.6
		C296.6,91.2,296.4,91.5,296,91.5z"/>
	<path class="st3" d="M296,115.8H144.1c-0.4,0-0.6-0.2-0.6-0.6c0-0.4,0.2-0.6,0.6-0.6l0,0H296c0.4,0,0.6,0.2,0.6,0.6l0,0
		C296.6,115.5,296.4,115.8,296,115.8z"/>
	<path class="st3" d="M296,140.1H144.1c-0.4,0-0.6-0.2-0.6-0.6s0.2-0.6,0.6-0.6H296c0.4,0,0.6,0.2,0.6,0.6S296.4,140.1,296,140.1z"
		/>
	<path class="st3" d="M164.6,38h-20c-0.4,0-0.6-0.2-0.6-0.6c0-0.4,0.2-0.6,0.6-0.6h20c0.4,0,0.6,0.2,0.6,0.6S165,38,164.6,38
		L164.6,38z"/>
	<path class="st3" d="M75.5,128.9c-2.6,1-6.7,1.9-7.8-1.7c-0.1-0.6-0.2-1.3-0.1-1.9c0.1-1,0.2-1.9,0.5-2.8c0.7-2.6,1.6-5.1,2.7-7.5
		c0.2-0.6,0.9-1.3,1.5-1.1c0.6,0.2,0.6,0.9,0.6,1.5c0,1.6-0.2,3.3-0.2,4.9c3.4-0.9,5.5-4.5,8.7-5.2c1-0.2,2.1-0.2,2.1,0.9
		c0.1,1.5-2.6,2.6-3.4,3.4c1-0.9,2.1-1.5,3.3-1.9c0.4-0.1,0.7-0.2,1.1-0.1c0.4,0,0.7,0.4,0.7,0.7c0,0.4-0.1,0.6-0.4,0.9
		c-0.5,0.6-1.1,1.1-1.7,1.6c0.6-0.7,1.5-1.2,2.3-1.3c0.5-0.1,1,0,1.3,0.4c0.4,0.6-0.4,1.3-1,1.7c0.5-0.5,1.1-0.7,1.7-0.9
		c0.7-0.1,1.3,0.4,1.5,1c0,0.5-0.2,1-0.7,1.3C84.9,125.4,79.7,127.3,75.5,128.9z"/>
	<path class="st1" d="M71.5,130.3c-0.7,0-1.6-0.1-2.3-0.5c-1-0.5-1.7-1.3-2.1-2.4c-0.2-0.7-0.2-1.5-0.2-2.2c0.1-1,0.2-1.9,0.5-2.9
		c0.7-2.7,1.6-5.2,2.7-7.7c0.5-1.2,1.3-1.7,2.2-1.5c0.5,0.1,1.1,0.6,1,2.1c0,0.7,0,1.3-0.1,2.1c-0.1,0.7-0.1,1.2-0.1,1.9
		c1.2-0.6,2.4-1.3,3.4-2.3c1.3-1.2,2.8-2.2,4.5-2.7c0.7-0.2,1.6-0.2,2.2,0.2c0.4,0.2,0.6,0.7,0.6,1.2c0,0.2,0,0.5-0.1,0.7
		c0.2,0,0.4,0,0.6,0c0.6,0.1,1.1,0.6,1.2,1.3c0,0.1,0,0.2,0,0.4c0.6-0.1,1.2,0.2,1.5,0.7c0.1,0.1,0.1,0.4,0.1,0.5l0,0
		c0.6,0,1.1,0.1,1.6,0.5c0.4,0.2,0.5,0.6,0.6,1.1c0,0.7-0.4,1.3-0.9,1.8c-3.3,3.3-8.1,5.1-12.4,6.7l-0.6,0.2
		C74.4,130,72.9,130.3,71.5,130.3z M72,114.3c-0.1,0-0.5,0.4-0.6,0.9c-1.1,2.4-1.9,4.9-2.7,7.5c-0.2,0.9-0.4,1.8-0.5,2.7
		c0,0.6,0,1.1,0.1,1.7c0.2,0.7,0.7,1.5,1.5,1.7c1.7,0.9,4.3,0,5.6-0.5l0,0L76,128c4.1-1.6,8.9-3.4,11.9-6.4c0.2-0.2,0.5-0.6,0.5-0.9
		c0-0.1-0.1-0.2-0.1-0.2c-0.1-0.1-0.4-0.2-0.6-0.2c-0.4,0-0.6,0.2-1,0.4c-0.2,0.1-0.4,0.2-0.6,0.4c-0.2,0.1-0.6,0.1-0.9-0.2
		c-0.1-0.2-0.1-0.6,0.1-0.9l0.5-0.4c0.1-0.1,0.2-0.2,0.2-0.4c-0.1-0.1-0.2-0.2-0.6-0.1c-0.4,0.1-0.7,0.2-1.1,0.4
		c-0.4,0.2-0.7,0.6-1,0.9c-0.2,0.2-0.6,0.1-0.9-0.1s-0.2-0.6,0-0.9c0.4-0.4,0.7-0.7,1.1-1c0.2-0.2,0.4-0.4,0.6-0.6s0.2-0.4,0.2-0.4
		s-0.1-0.1-0.2-0.1c-0.2,0-0.5,0-0.7,0.1c-0.4,0.1-0.9,0.4-1.2,0.5c-0.4,0.2-0.7,0.5-1,0.7c-0.4,0.2-0.6,0.4-0.9,0.6l0,0
		c-0.2,0.2-0.6,0.1-0.9-0.1s-0.2-0.6,0-0.9c0.6-0.5,1.3-1,2.1-1.3c0.6-0.5,1.2-1,1.1-1.5c0-0.2-0.1-0.4-0.1-0.4s-0.4-0.2-1.2,0
		c-1.5,0.5-2.9,1.3-4,2.4c-1.3,1.2-2.9,2.2-4.6,2.8c-0.1,0-0.4,0-0.5-0.1c-0.1-0.1-0.2-0.2-0.2-0.5c0-1,0-1.9,0.1-2.8
		c0-0.7,0.1-1.3,0.1-2.1C72.3,114.1,72.1,114.4,72,114.3C71.8,114.3,72,114.3,72,114.3z"/>
	<path class="st3" d="M72.7,120.3c1.6,1.9,1.6,4.6,0.1,6.7h0.4"/>
	<path class="st1" d="M72.8,127.4c-0.4,0-0.6-0.2-0.6-0.6c0-0.1,0-0.2,0.1-0.4c1.3-1.7,1.3-4.1-0.1-5.8c-0.2-0.2-0.2-0.6,0-0.9
		s0.6-0.2,0.9,0l0,0c1.6,1.9,1.8,4.6,0.5,6.8v0.1c0,0.4-0.2,0.6-0.6,0.6L72.8,127.4L72.8,127.4z"/>
	
		<rect x="95.4" y="62.5" transform="matrix(9.550110e-02 -0.9954 0.9954 9.550110e-02 -3.8458 284.7035)" class="st3" width="118.8" height="163.9"/>
	<path class="st1" d="M230.6,212L230.6,212L67.2,196.3c-0.4,0-0.6-0.4-0.6-0.7L78,77.4c0-0.4,0.4-0.6,0.7-0.6L242,92.5
		c0.4,0,0.6,0.4,0.6,0.6l0,0l-11.3,118.2c0,0.1-0.1,0.4-0.2,0.5C230.8,212,230.7,212,230.6,212z M67.9,195.2l162,15.5l11.2-116.9
		l-162-15.7L67.9,195.2z"/>
	<path class="st0" d="M217.7,200.8L217.7,200.8L81.9,187.7c-0.4,0-0.6-0.4-0.6-0.7l0,0l9.5-98.4c0-0.1,0.1-0.4,0.2-0.4
		c0.1-0.1,0.2-0.1,0.5-0.1l135.8,13c0.4,0,0.6,0.4,0.6,0.7l0,0l-9.5,98.4c0,0.1-0.1,0.4-0.2,0.5C218,200.7,217.9,200.8,217.7,200.8z
		 M82.6,186.6l134.6,12.9l9.2-97L92,89.4L82.6,186.6z"/>
	<path class="st3" d="M16.9,267.2l-1,7.5c0,0,21,2.2,20.3,0.4c-1.6-2.7-3.3-5.1-5.1-7.5"/>
	<path class="st1" d="M31.8,276.6c-4.5,0-11.2-0.6-15.8-1.1c-0.1,0-0.4-0.1-0.4-0.2c-0.1-0.1-0.1-0.2-0.1-0.5l1-7.5
		c0-0.4,0.4-0.6,0.7-0.5c0.4,0,0.6,0.4,0.5,0.7l-1,6.9c8.3,0.9,17,1.3,18.8,0.9c-1.1-2.1-4.9-7-4.9-7.2c-0.2-0.2-0.2-0.6,0-0.9
		c0.2-0.2,0.6-0.2,0.9,0c0,0,0,0.1,0.1,0.1c1.8,2.4,3.5,5,5.1,7.7c0.1,0.2,0.1,0.6-0.1,0.9C36.2,276.3,34.3,276.6,31.8,276.6z"/>
	<path class="st3" d="M68.9,129.9c0,0,13.6,9.1,18.9,6.3c3.2-1.6,5.6-3.9,8.5-6c2.7-1.8,5.3-3.8,7.8-5.8c0.2-0.2,0.5-0.5,0.7-0.9
		c0.2-0.4,0.4-0.6,0.5-1c0.5-1.3,1.1-2.7,1.7-4c0.2-0.5,0.6-1,1.1-1.2c2.8-1.1,1.1,4.7,0.5,5.7c2.2-2.1,4.4-4,6.8-6
		c0.2-0.2,0.6-0.4,0.9-0.4c0.4,0.1,0.5,0.5,0.5,0.9c-0.1,0.4-0.2,0.6-0.5,1l-3.8,4.5c1.1-1.3,2.3-2.6,3.5-3.6
		c0.5-0.4,1.7-1.6,2.4-1.1c1.1,0.9-2.9,5.5-3.6,6.2c1.1-1.5,2.3-2.8,3.8-3.9c0.4-0.4,0.9-0.6,1.3-0.6c0.2,0.2,0,0.7-0.2,1.1l-2.7,3
		c1.3-1.5,2.8-3,4.7-3.4c0.1,0.4-0.1,0.6-0.4,0.9c-3.9,4.5-7.8,9-11.8,13.2c-5.5,5.7-11.3,12.4-19.1,14.6
		c-9.1,2.7-17.4-2.8-24.9-7.4"/>
	<path class="st1" d="M85.7,150.7c-7,0-13.5-4-19.3-7.7l-0.9-0.5c-0.2-0.1-0.4-0.6-0.2-0.9c0.1-0.2,0.6-0.4,0.9-0.2l0,0L67,142
		c7.3,4.6,14.9,9.2,23.4,6.8c7-2.1,12.8-8.1,17.9-13.5l1-1c4-4.3,7.9-8.6,11.2-12.5c-1.1,0.7-2.1,1.6-2.9,2.6
		c-0.2,0.2-0.6,0.2-0.9,0l0,0c-0.2-0.2-0.2-0.6,0-0.9l2.1-2.4c-0.6,0.5-1.1,1-1.6,1.5c-0.7,0.9-1.5,1.7-1.9,2.2
		c-0.2,0.2-0.6,0.2-0.9,0s-0.2-0.6-0.1-0.9c0.6-0.7,1.2-1.6,1.9-2.2c0.9-0.9,1.5-1.9,1.8-3.2c-0.6,0.2-1.1,0.6-1.5,1.1
		c-0.9,0.9-1.8,1.7-2.6,2.6l-1,1.1c-0.2,0.2-0.6,0.2-0.9,0.1l0,0c-0.2-0.2-0.2-0.6-0.1-0.9c0.4-0.4,0.6-0.7,1-1.1l2.8-3.3
		c0.1-0.1,0.4-0.4,0.4-0.6c0,0,0-0.1,0-0.2c0,0-0.1,0-0.4,0.2c-2.4,1.9-4.7,4-6.7,5.8c-0.2,0.2-0.6,0.2-0.9,0
		c-0.1-0.2-0.2-0.5-0.1-0.7c0.5-1,1.5-4.3,0.9-5c-0.1-0.1-0.5,0-0.5,0c-0.4,0.2-0.6,0.6-0.9,1c-0.7,1.2-1.2,2.6-1.7,3.9
		c-0.1,0.5-0.2,0.9-0.5,1.2c-0.2,0.4-0.5,0.6-0.9,1c-2.3,1.9-4.7,3.8-7.2,5.5l-0.7,0.5c-1,0.7-1.9,1.3-2.8,2.1
		c-1.8,1.5-3.8,2.8-5.7,3.9c-5.6,2.9-18.9-6-19.6-6.4c-0.2-0.1-0.4-0.5-0.1-0.9l0,0c0.2-0.2,0.6-0.4,0.9-0.1
		c3.8,2.4,14.2,8.4,18.3,6.3c1.9-1.1,3.9-2.3,5.6-3.8c1-0.7,1.8-1.5,2.8-2.1l0.7-0.5c2.4-1.6,4.9-3.4,7-5.3c0.2-0.2,0.5-0.4,0.6-0.7
		c0.1-0.2,0.2-0.5,0.4-0.9c0.5-1.5,1.1-2.8,1.8-4.1c0.2-0.7,0.9-1.2,1.5-1.6c0.6-0.4,1.5-0.2,1.9,0.2c0.7,0.9,0.5,2.6,0.1,3.9
		c1.6-1.5,3.3-2.9,5.1-4.3c0.4-0.4,0.9-0.5,1.3-0.4c0.6,0.1,1,0.7,1,1.3c0.5-0.2,1-0.1,1.3,0.1c0.2,0.2,0.4,0.5,0.5,0.9
		c0,0.2,0,0.6-0.1,0.9c0.2-0.1,0.6-0.2,1-0.1c0.1,0,0.2,0.1,0.4,0.2c0.2,0.2,0.4,0.5,0.2,0.9c0.4-0.1,0.7-0.2,1.1-0.2
		c0.4,0,0.6,0.1,0.7,0.5c0.1,0.5-0.1,1.1-0.5,1.5c-3.4,4-7.5,8.7-11.8,13.2l-1,1c-5.1,5.5-10.9,11.7-18.3,13.8
		C89.1,150.4,87.4,150.6,85.7,150.7z"/>
	<polygon class="st1" points="64.1,164.8 77.4,268.5 63.1,268.2 45.2,194.9 32.5,268.4 16.3,267.2 25.4,160 	"/>
	<path class="st3" d="M40.6,125.7c0.4-8.6-1.3-26.2-1.3-26.2s11.1,0.6,14.7-4.6c4.5,3.5,5.5,13.6,4.6,16.6c-1.7,6-9.4,4.6-9.4,4.6
		l1,10.8L40.6,125.7z"/>
	<path class="st1" d="M50.3,127.4L50.3,127.4l-9.8-1.1c-0.4,0-0.6-0.4-0.5-0.6c0.4-8.5-1.3-26-1.3-26.1c0-0.1,0-0.4,0.1-0.5
		c0.1-0.1,0.2-0.2,0.5-0.2c0.1,0,10.7,0.5,14.2-4.4c0.1-0.1,0.2-0.2,0.4-0.2c0.1,0,0.4,0,0.5,0.1c4.7,3.8,5.7,14.1,4.9,17.2
		c-1.5,5.2-7.2,5.3-9.2,5.1l1,10.1c0,0.2,0,0.4-0.2,0.5C50.6,127.4,50.5,127.4,50.3,127.4z M41.2,125.1l8.4,1l-1-10.1
		c0-0.2,0-0.4,0.2-0.5c0.1-0.1,0.4-0.2,0.5-0.1c0.2,0,7.2,1.1,8.6-4.1c0.7-2.6,0-11.8-4-15.5c-3.6,4.3-11.7,4.5-14.2,4.4
		C40.3,103.4,41.6,117.5,41.2,125.1L41.2,125.1z"/>
	<path class="st1" d="M49.4,116c-1.7-0.2-3.4-0.9-4.7-1.9c0,0,2.1,5.2,5.3,6.1L49.4,116z"/>
	<path class="st1" d="M50,120.6h-0.1c-3.5-0.9-5.6-6.2-5.7-6.3c-0.1-0.2,0-0.5,0.2-0.7c0.2-0.1,0.5-0.1,0.7,0.1
		c1.3,1,2.8,1.6,4.5,1.8c0.2,0,0.5,0.2,0.5,0.5l0.6,4c0,0.1,0,0.4-0.1,0.5C50.2,120.6,50.1,120.6,50,120.6z M46,115.6
		c0.7,1.5,1.8,2.8,3.3,3.6l-0.4-2.7C47.9,116.4,46.9,116,46,115.6z"/>
	<path class="st2" d="M57.6,121.2l25.1,13.8l-6.1,17.6c0,0-31.7-16.8-31.8-21.3C44.7,126.9,57.6,121.2,57.6,121.2z"/>
	<path class="st2" d="M65.6,174.4c0,0,1-22.7-1.2-36.4c-1-5.8-0.6-10-2.6-13.1c-6.4-10.6-31.7-7.4-35.5-0.1
		c-3.6,7.3-6.6,49.8-6.6,49.8L65.6,174.4z"/>
	<path class="st3" d="M41.1,105.7c-0.2-1.3-1.3-2.6-2.7-2.9c-0.6-0.2-1.2-0.1-1.8,0.2c-0.6,0.6-1,1.5-0.9,2.2
		c0.1,1.3,0.7,2.6,1.7,3.4c1,0.9,2.2,1.3,3.5,1.3"/>
	<path class="st1" d="M40.9,110.5c-3,0-5.6-2.3-5.7-5.3c-0.1-1.1,0.2-2.1,1.1-2.8c0.7-0.5,1.6-0.5,2.3-0.2c1.6,0.5,2.8,1.7,3.2,3.4
		c0.1,0.4-0.1,0.6-0.5,0.7l0,0c-0.4,0-0.6-0.1-0.7-0.5c-0.2-1.2-1.1-2.1-2.2-2.4c-0.5-0.1-1-0.1-1.3,0.1c-0.5,0.5-0.6,1.1-0.6,1.7
		c0.1,1.2,0.6,2.2,1.5,3c0.9,0.7,1.9,1.2,3.2,1.2l0,0c0.4,0,0.6,0.2,0.6,0.6C41.6,110.3,41.3,110.5,40.9,110.5L40.9,110.5z"/>
	<ellipse transform="matrix(0.9546 -0.2979 0.2979 0.9546 -27.4637 20.7511)" class="st1" cx="54.3" cy="100.5" rx="0.5" ry="1"/>
	<path class="st3" d="M63.1,268.2c0,0-0.4,6.3,0.4,7.3c0.7,1,21,2.3,19.9-0.1c-1.1-2.4-7.3-7.5-7.3-7.5"/>
	<path class="st1" d="M76.1,277.4c-5.7,0-12.4-0.7-13.1-1.5c-0.9-1.1-0.6-6.2-0.5-7.7c0-0.4,0.4-0.6,0.6-0.6c0.4,0,0.6,0.4,0.6,0.6
		l0,0c-0.2,2.9-0.1,6.3,0.2,6.8c3.2,0.6,6.3,1,9.6,1c6,0.2,8.7-0.2,9.4-0.6c-1-1.9-5.3-5.8-7-7.2c-0.2-0.2-0.2-0.6-0.1-0.9l0,0
		c0.2-0.2,0.6-0.2,0.9-0.1c0.2,0.2,6.3,5.2,7.4,7.8c0.2,0.5,0,1.1-0.6,1.3C82.4,277.2,79.5,277.4,76.1,277.4z"/>
	<path class="st3" d="M56.8,100.7c0,0,4.5,5.1,3.4,6.2c-1.1,1.1-3.6,0.5-3.6,0.5"/>
	<path class="st1" d="M57.9,108.1c-0.5,0-1.1,0-1.6-0.1c-0.4-0.1-0.5-0.4-0.5-0.7l0,0c0.1-0.4,0.4-0.5,0.7-0.5l0,0
		c0.6,0.1,2.4,0.4,3.2-0.4c0.2-0.5-1.5-3-3.4-5.3c-0.2-0.2-0.2-0.6,0-0.9l0,0c0.2-0.2,0.6-0.2,0.9,0l0,0c1.8,2.1,4.6,5.7,3.3,6.9
		C59.8,107.9,58.8,108.2,57.9,108.1z"/>
	<path class="st4" d="M76.8,153.3c-0.1,0-0.2,0-0.2-0.1c-0.2-0.1-17.6-9.4-23.9-12.9c-0.2-0.1-0.4-0.5-0.2-0.9l0,0
		c0.1-0.2,0.5-0.4,0.9-0.2l0,0c6.3,3.4,23.8,12.8,23.9,12.9c0.2,0.1,0.4,0.5,0.2,0.9l0,0C77.2,153.2,76.9,153.3,76.8,153.3z"/>
	<path class="st3" d="M45.2,195.6c-0.1,0-0.2,0-0.4-0.1c-0.1-0.1-2.7-2.6-5.3-11.4c-0.1-0.4,0.1-0.6,0.4-0.7
		c0.4-0.1,0.6,0.1,0.7,0.4c2.6,8.5,4.9,10.8,5,10.8c0.2,0.2,0.2,0.6,0,0.9l0,0C45.5,195.4,45.4,195.6,45.2,195.6z"/>
	<path class="st0" d="M188.3,162.2c-0.2,0-0.4-0.1-0.5-0.2c-0.5-0.5-47.8-54.9-53.8-59.1c-2.3-1.7-16.5,3.9-46.3,26.1
		c-0.2,0.2-0.7,0.1-0.9-0.2c-0.1-0.2-0.1-0.6,0.1-0.9c0.1-0.1,10.3-7.7,21.3-14.7c22.3-14.3,25.5-12.1,26.5-11.4
		c6.1,4.4,52.1,57.1,54,59.3c0.2,0.2,0.2,0.6,0,0.9C188.7,162,188.4,162.2,188.3,162.2z"/>
	<path class="st0" d="M222.7,152.9c-0.2,0-0.5-0.1-0.5-0.2c-9.8-16.3-21.4-33.3-23.3-33.6c-2.1,0.2-18.7,13.7-28.8,22.1
		c-0.2,0.2-0.7,0.1-0.9-0.1c-0.1-0.2-0.1-0.6,0.1-0.9c2.7-2.2,26.4-21.9,29.5-22.3c1.1-0.1,5.5,2.9,24.5,34.2
		c0.1,0.2,0.1,0.7-0.2,0.9C222.9,152.9,222.8,152.9,222.7,152.9z"/>
	<path class="st0" d="M173.2,118.2c-2.9,0-5.2-2.3-5.2-5.2c0-2.9,2.3-5.2,5.2-5.2c2.9,0,5.2,2.3,5.2,5.2l0,0
		C178.5,115.9,176.1,118.2,173.2,118.2z M173.2,109.1c-2.2,0-3.9,1.8-3.9,3.9c0,2.1,1.8,3.9,3.9,3.9c2.1,0,3.9-1.8,3.9-3.9l0,0
		C177.2,110.8,175.4,109.1,173.2,109.1z"/>
	<path class="st3" d="M50.1,108.8c0.5,1.3,1.8,2.3,3.3,2.4c1.5,0.1,2.8-0.5,3.8-1.6"/>
	<path class="st1" d="M53.7,111.8h-0.4c-1.7-0.1-3.2-1.2-3.8-2.8c-0.1-0.4,0-0.7,0.4-0.9c0.4-0.1,0.7,0,0.9,0.4
		c0.5,1.1,1.6,1.9,2.8,1.9c1.2,0.1,2.4-0.4,3.3-1.3c0.2-0.2,0.6-0.2,0.9,0l0,0c0.2,0.2,0.2,0.6,0,0.9l0,0
		C56.5,111.2,55.2,111.8,53.7,111.8z"/>
	<path class="st1" d="M36.2,115.4c-2.4,0-4.9-0.6-7-1.7c-1.1-0.5-1.9-1.3-2.7-2.3c-0.4-0.6-0.5-1.3-0.4-2.1c-1,0.1-1.9,0-2.8-0.5
		c-1.2-0.7-2.3-1.7-3.2-2.9c-0.2-0.4-0.5-0.7-0.5-1.2s0.2-0.9,0.6-1.1l0.9-0.9c1.5-1.5,2.8-3.2,3.9-5c0.6-1.3,1.2-2.7,1.6-4.1
		c0.4-1.1,0.7-2.2,1.2-3.2c3.3-7.4,9.4-8.6,14.8-8.9c3.5-0.1,8.1,1,10.2,4.5c0.1-0.1,0.2-0.2,0.5-0.2c0.6-0.2,1.3-0.2,2.1,0.1
		c0.9,0.5,1.6,1.3,2.1,2.2c2.1,3.6,2.9,7.9,2.7,12.1c0,0.4-0.2,0.6-0.6,0.6l0,0c-0.4,0-0.6-0.4-0.6-0.6c0.2-4-0.6-7.9-2.6-11.4
		c-0.4-0.7-0.9-1.3-1.6-1.7c-0.4-0.1-0.7-0.1-1.1,0c-0.2,0.1-0.4,0.2-0.5,0.4c-0.1,0.2-0.4,0.4-0.5,0.4l0,0c-0.2,0-0.5-0.1-0.6-0.4
		c-1.6-3.5-6.1-4.6-9.5-4.5c-7.4,0.2-11.3,2.7-13.7,8.1c-0.5,1-0.9,2.1-1.1,3c-0.5,1.5-1.1,2.9-1.8,4.3c-1.1,1.9-2.6,3.6-4.1,5.2
		l-0.9,0.9c-0.1,0.1-0.2,0.2-0.2,0.4s0.1,0.4,0.2,0.5c0.7,1.1,1.7,1.9,2.8,2.6c1,0.6,2.3,0.5,3.3-0.1c0.2-0.2,0.6-0.1,0.9,0.1
		c0.1,0.2,0.1,0.6-0.1,0.9c-0.5,0.6-0.6,1.5-0.2,2.1c0.5,0.7,1.2,1.3,2.1,1.7c2.3,1.1,4.7,1.7,7.3,1.5c0.4,0,0.6,0.2,0.6,0.5l0,0
		c0,0.4-0.2,0.6-0.6,0.6l0,0L36.2,115.4z"/>
	<path class="st3" d="M177.1,127.1h208.6c9.1,0,13.8,6.3,10.8,14.1l-46.9,116.1c-3.2,7.8-13,14.1-22.1,14.1H118.8
		c-9.1,0-13.8-6.3-10.7-14.1L155,141.1C158.1,133.4,168,127.1,177.1,127.1z"/>
	<path class="st1" d="M327.5,271.9H118.8c-4.7,0-8.7-1.7-10.8-4.9c-1.8-2.7-2.1-6.3-0.6-10L154.3,141c3.3-8,13.4-14.5,22.7-14.5
		h208.6c4.7,0,8.7,1.7,10.8,4.7c1.8,2.8,2.1,6.4,0.6,10.2l-46.9,116.1C346.9,265.5,336.7,271.9,327.5,271.9z M177.1,127.8
		c-8.9,0-18.5,6.1-21.5,13.7l-47,116c-1.3,3.4-1.2,6.6,0.5,9c1.8,2.7,5.3,4.3,9.7,4.3h208.6c8.9,0,18.5-6.2,21.5-13.7l46.9-116.1
		c1.3-3.4,1.2-6.6-0.5-9c-1.8-2.7-5.3-4.3-9.7-4.3L177.1,127.8z"/>
	<path class="st1" d="M314.7,56.1h-35.2c-0.4,0-0.6-0.2-0.6-0.6l0,0V20.3c-0.1-0.4,0.1-0.7,0.5-0.7c0.4-0.1,0.7,0.1,0.7,0.5
		c0,0.1,0,0.2,0,0.4v34.5h34.6c0.4-0.1,0.7,0.1,0.7,0.5c0.1,0.4-0.1,0.7-0.5,0.7C315,56.1,314.8,56.1,314.7,56.1L314.7,56.1z"/>
	<path class="st1" d="M190.8,43.4c-1.9,0-3.8-1.2-4.6-2.9c-1.5-2.7-5.3-17-6.1-22.7c-0.5-2.7,1.3-5.2,3.9-5.7c2.8-0.7,6.6,0,7.5,2.3
		c0.9,1.8,2.3,5.3,2.3,5.3l-1.1,0.5c0,0-1.6-3.5-2.3-5.3c-0.6-1.5-3.6-2.2-6.1-1.6c-2.1,0.4-3.4,2.3-3,4.4c0.7,6.1,4.7,19.8,6,22.2
		c0.7,1.6,2.4,2.6,4.1,2.2c1.2-0.4,2.1-1.7,1.8-3c-0.1-4.6-6.3-21.4-6.4-21.5c-0.1-0.4,0-0.7,0.4-0.9l0,0c0.4-0.1,0.7,0,0.9,0.4
		c0.2,0.7,6.3,17.1,6.4,22c0.2,1.9-0.9,3.8-2.8,4.3C191.5,43.4,191.1,43.4,190.8,43.4z"/>
	<path class="st0" d="M361.6,165.4h-71.5c-1.5,0.1-2.9-0.6-3.9-1.8c-0.9-1.5-0.9-3.3-0.1-4.9l2.4-5.8c1.6-3.5,5-6,8.9-6.3h71.5
		c1.5-0.1,2.9,0.6,3.9,1.8c0.9,1.5,0.9,3.3,0.1,4.9l-2.4,5.8C368.9,162.8,365.5,165.2,361.6,165.4z M297.5,147.8
		c-3.4,0.2-6.3,2.4-7.8,5.5l-2.4,5.8c-0.6,1.2-0.6,2.6,0,3.8c0.7,0.9,1.7,1.3,2.8,1.2h71.5c3.4-0.2,6.3-2.3,7.8-5.3l2.4-5.8
		c0.6-1.2,0.6-2.6,0-3.8c-0.6-0.9-1.7-1.3-2.8-1.3H297.5z"/>
</g>
</svg>
