<?xml version="1.0" encoding="utf-8"?>
<!-- Generator: Adobe Illustrator 26.0.1, SVG Export Plug-In . SVG Version: 6.00 Build 0)  -->
<svg version="1.1" id="Layer_1" xmlns="http://www.w3.org/2000/svg" xmlns:xlink="http://www.w3.org/1999/xlink" x="0px" y="0px"
	 viewBox="0 0 400 300" style="enable-background:new 0 0 400 300;" xml:space="preserve">
<style type="text/css">
	.st0{fill:#FFFFFF;}
	.st1{fill:#180308;}
	.st2{fill:#EE1D52;}
	.st3{fill:#FDE8EE;}
</style>
<g id="_311_customer_service_flatline">
	<path class="st0" d="M178.1,85.3c0,0,1-14.8,0-18.9s-6.8-14-8.8-13.3s-2.2,3.6,0,7.5c0,0-12.4-10-17-9.9c-4.6,0.1-7.3,6.2-6.7,9.1
		s11.6,8,12.4,10.3c0.8,2.3,2.7,19.1,2.7,19.1"/>
	<path class="st1" d="M160.7,90c-0.4,0-0.6-0.3-0.6-0.5c0-0.1-1.9-16.6-2.6-19.1c-0.3-0.9-3.1-2.8-5.4-4.4c-3.3-2.2-6.4-4.2-6.8-6.1
		c-0.4-2.4,0.4-4.9,1.9-6.8c1.2-1.8,3.2-3,5.3-3.1c3.7-0.1,11.6,5.5,15.3,8.4c-0.5-1.3-0.6-2.8-0.3-4.1c0.3-0.8,0.9-1.4,1.7-1.8
		c0.4-0.1,0.9-0.1,1.3,0.1c2.7,1.4,7.5,10,8.2,13.6c1,4.1,0,18.4,0,19.1c0,0.4-0.3,0.6-0.6,0.6l0,0c-0.4,0-0.6-0.4-0.6-0.6
		c0-0.1,0.9-14.8,0-18.7c-1-4.4-6.6-13-7.9-12.9c-0.4,0.1-0.8,0.5-0.9,1c-0.5,1.3,0,3.3,1.3,5.5c0.1,0.3,0.1,0.6-0.1,0.8
		c-0.3,0.3-0.6,0.3-0.8,0c-3.3-2.7-12.9-9.9-16.6-9.7c-1.8,0.1-3.3,1.2-4.4,2.6c-1.3,1.7-1.9,3.7-1.7,5.8c0.3,1.3,3.6,3.5,6.3,5.3
		c3.5,2.3,5.5,3.7,5.9,5c0.8,2.4,2.6,18.5,2.7,19.2C161.3,89.6,161.1,89.9,160.7,90L160.7,90z"/>
	<polygon class="st0" points="209.7,283.6 390.8,241.3 390.8,212.2 209.7,230.8 	"/>
	<path class="st1" d="M209.7,284.2c-0.1,0-0.3,0-0.4-0.1c-0.1-0.1-0.3-0.3-0.3-0.5v-52.8c0-0.4,0.3-0.6,0.6-0.6l181-18.5
		c0.1,0,0.4,0,0.5,0.1c0.1,0.1,0.3,0.3,0.3,0.5v29.1c0,0.3-0.3,0.6-0.5,0.6l-181,42.2L209.7,284.2z M210.5,231.4v51.2l179.8-41.8
		v-27.9L210.5,231.4z"/>
	<polygon class="st0" points="11.2,182.6 11.2,214.5 209.7,283.6 209.7,220.3 	"/>
	<path class="st1" d="M209.7,284.2h-0.3l-198.6-69c-0.3-0.1-0.4-0.4-0.4-0.6v-31.9c0-0.3,0.1-0.4,0.3-0.5c0.1-0.1,0.4-0.1,0.5-0.1
		l198.6,37.6c0.3,0,0.5,0.4,0.5,0.6v63.2c0,0.3-0.1,0.4-0.3,0.5C210.1,284.2,209.9,284.2,209.7,284.2z M11.8,214l197.3,68.6v-61.8
		L11.8,183.5V214z"/>
	<path class="st1" d="M343.4,208c0,0,18.2-106.1,2.8-121.2S261.4,69,245.8,73s-27.6,111.5-27.6,111.5L343.4,208z"/>
	<path class="st1" d="M343.4,208.6L343.4,208.6l-125.2-23.4c-0.4-0.1-0.5-0.4-0.5-0.8c0.5-4.4,12.1-107.9,28.1-112
		c14.6-3.7,85.2-1.7,101.1,13.9c15.3,15.1-1.9,117.4-2.7,121.8c0,0.1-0.1,0.4-0.3,0.4C343.7,208.5,343.5,208.6,343.4,208.6z
		 M219,183.9l123.9,23.3c1.4-8.9,17.3-106,3-120c-6.4-6.3-24.6-11.5-49.7-13.9c-20.1-1.9-42.1-1.8-50.1,0.3
		c-4.2,1.2-11.1,11.8-19.2,56.8C222.5,155.2,219.5,179.8,219,183.9z"/>
	<polygon class="st0" points="397.4,206.9 397.4,217.9 210.9,256.6 2.6,185.3 2.6,176.7 	"/>
	<path class="st1" d="M210.9,257.3c-0.1,0-0.1,0-0.3,0L2.4,186c-0.3-0.1-0.4-0.4-0.4-0.6v-8.8c0-0.4,0.3-0.6,0.6-0.6l0,0l394.7,30.4
		c0.4,0,0.6,0.3,0.6,0.6v10.8c0,0.3-0.3,0.5-0.5,0.6l-186.3,38.8L210.9,257.3z M3.2,184.9L210.9,256l185.7-38.6v-9.8L3.2,177.3
		V184.9z"/>
	<path class="st2" d="M314.4,91.3c6.1,22.1-8.2,126.6-8.2,126.6l-83.8-32.8c0,0,17.3-20.7-3.3-64.1c-8.4-17.8,0.3-27,6.2-32.1
		C230,84.7,308.3,69.2,314.4,91.3z"/>
	<polygon class="st0" points="138.3,152.9 397.4,206.9 210.9,242.9 2.6,176.7 	"/>
	<path class="st1" d="M210.9,243.5h-0.1L2.4,177.3c-0.4-0.1-0.5-0.5-0.4-0.9c0.1-0.3,0.3-0.4,0.5-0.4l135.7-23.8c0.1,0,0.1,0,0.3,0
		l258.9,54.2c0.3,0.1,0.5,0.4,0.5,0.6c0,0.3-0.3,0.5-0.5,0.6l-186.3,35.9L210.9,243.5z M5.4,176.8L211,242.2l183-35.3l-255.6-53.4
		L5.4,176.8z"/>
	<path class="st0" d="M222.4,190.6c0,0-63.1-20-64.1-20c-1,0-80.9,13.6-80.9,13.6l66.2,22.7L222.4,190.6z"/>
	<path class="st1" d="M143.6,207.7c-0.1,0-0.1,0-0.3,0l-66.2-22.7c-0.3-0.1-0.5-0.4-0.4-0.6c0-0.3,0.3-0.5,0.5-0.6
		c8.1-1.4,79.8-13.6,81-13.6c1.2,0,49.6,15.3,64.4,20c0.3,0.1,0.5,0.4,0.5,0.6s-0.3,0.5-0.5,0.6l-78.8,16.4L143.6,207.7z M80,184.5
		l63.6,21.8l76.1-15.8c-18.7-5.9-60-18.9-61.5-19.2C156.8,171.4,107.9,179.8,80,184.5L80,184.5z"/>
	<path class="st3" d="M134.7,199c-0.1,0-0.1,0-0.3,0l-35.2-15.8c-0.4-0.1-0.5-0.5-0.3-0.9c0.1-0.3,0.3-0.4,0.5-0.4l41.1-5.8
		c0.1,0,0.3,0,0.4,0l36.6,15.6c0.3,0.1,0.4,0.4,0.4,0.6s-0.3,0.5-0.5,0.5L134.7,199L134.7,199z M101.8,182.7l33,14.8l40-5.7
		l-34.3-14.6L101.8,182.7z"/>
	<polygon class="st0" points="143.6,206.9 222.8,197.7 222.4,190.6 143.6,201.1 	"/>
	<path class="st1" d="M143.6,207.7c-0.1,0-0.4,0-0.5-0.1c-0.1-0.1-0.3-0.3-0.3-0.5v-5.9c0-0.4,0.3-0.6,0.5-0.6l78.8-10.6
		c0.4,0,0.6,0.1,0.8,0.5c0,0,0,0,0,0.1l0.4,7.1c0,0.4-0.3,0.6-0.6,0.6L143.6,207.7L143.6,207.7z M144.2,201.7v4.5L222,197l-0.3-5.8
		L144.2,201.7z"/>
	<polygon class="st0" points="143.6,206.9 129,101.6 62.3,98.3 77.4,184.4 	"/>
	<path class="st1" d="M143.6,207.7c-0.1,0-0.1,0-0.3,0l-66.2-22.7c-0.3-0.1-0.4-0.3-0.4-0.5L61.8,98.4c0-0.3,0-0.4,0.1-0.5
		c0.1-0.1,0.4-0.3,0.5-0.3l66.7,3.3c0.3,0,0.6,0.3,0.6,0.5l14.6,105.3c0,0.3,0,0.5-0.3,0.6C143.9,207.6,143.7,207.7,143.6,207.7z
		 M77.9,183.9l64.8,22.1l-14.3-103.8l-65.3-3.3L77.9,183.9z"/>
	<path class="st3" d="M177.9,188.1h-0.3l-21.9-7.7c-0.4,0-0.6-0.4-0.6-0.6c0-0.4,0.4-0.6,0.6-0.6l0,0l12.5-1.9c0.1,0,0.3,0,0.3,0
		l22.4,8.1c0.3,0.1,0.5,0.4,0.4,0.6c0,0.3-0.3,0.5-0.5,0.5l-12.9,1.4V188.1z M158.6,180l19.4,6.7l10-1.2l-19.6-7.2L158.6,180z"/>
	<path class="st2" d="M315.8,106.4l4.6,37.2c2.8,22.5,4.6,44.2-4,49.6c-8.6,5.4-83.7,5.7-83.7,5.7c1.4-6.3,1.7-12.9,1-19.3
		c0,0,61.8-8.9,61.2-14.9c-0.6-6.1-20.2-48.2-20.6-58.1C274,96.6,304,99.3,315.8,106.4z"/>
	<path class="st2" d="M224.9,89c0,0-41.3,33.7-41.1,27.3c0.1-3.3-0.8-36.6-0.8-36.6l-25.9,1.2c0,0-10.2,54.6-1.3,68
		c11.3,17,27.7,11.5,49.4-1.2c27.8-16.2,34.8-23.2,34.8-23.2L224.9,89z"/>
	<path class="st0" d="M233.7,179.5c0,0-12.9,0.5-14.6-1.9s-4.5-5.4-6.2-5.8c-1.7-0.4-21.8,2.1-20.6,4.1s9.9,0.3,9.9,0.3
		s-7.6,1.9-7.2,4.5s2.1,2.3,5,1.3s9.9-2.7,9.9-2.7s-10.7,5-10.8,7.5s5,1.3,12.2-2.6c0,0-8.5,5.3-5.8,7c2.7,1.7,8.8-1.7,8.8-1.7
		s3,4.6,6.8,5.9c3.9,1.3,12.1,1,12.1,1S237.2,187.8,233.7,179.5z"/>
	<path class="st1" d="M232.7,197.2c-1.8,0-8.4-0.1-11.8-1.2s-5.9-4.4-6.8-5.7c-1.7,0.8-6.4,2.8-8.9,1.4c-0.5-0.3-0.8-0.8-0.8-1.4
		c0.3-1.2,0.8-2.1,1.7-2.8c-2.8,1.2-5.5,1.8-6.8,1c-0.5-0.4-0.9-1-0.8-1.7c0.1-1.5,3.1-3.7,6.1-5.4c-1.5,0.4-3.1,0.9-4.1,1.2
		c-1.9,0.6-3.6,1-4.6,0.4c-0.8-0.5-1.2-1.3-1.2-2.2c-0.1-1.3,0.9-2.3,2.4-3.2c-2.3,0.1-4.4-0.1-5-1.4c-0.3-0.4-0.1-0.8,0.1-1.2
		c1.7-2.3,19.7-4.2,21.2-4c2.1,0.4,5.2,4.1,6.6,6.1c1,1.4,8.9,1.8,14,1.7c0.3,0,0.5,0.1,0.6,0.4c3.5,8.5-0.4,17.1-0.5,17.5
		c-0.1,0.3-0.4,0.4-0.6,0.4L232.7,197.2z M214.3,188.8c0.3,0,0.4,0.1,0.5,0.3c0,0,2.8,4.5,6.4,5.5c3.2,1,9.8,1,11.5,1
		c0.6-1.7,3.1-8.8,0.5-15.6c-3,0.1-13,0.3-14.7-2.2c-2.1-2.8-4.5-5.3-5.7-5.5c-2.1-0.4-18,1.8-19.8,3.3c0.9,0.8,5.3,0.5,9.1-0.1
		c0.4-0.1,0.6,0.1,0.8,0.5l0,0c0.1,0.4-0.1,0.8-0.5,0.8l0,0c-2.8,0.8-7,2.4-6.7,3.7c0,0.5,0.3,0.9,0.5,1.3c0.6,0.4,2.2,0,3.6-0.5
		c2.8-0.9,9.7-2.6,9.9-2.7c0.4-0.1,0.8,0.1,0.9,0.4c0.1,0.4-0.1,0.8-0.4,0.9c-5,2.3-10.4,5.7-10.4,7c0,0.4,0.1,0.4,0.1,0.5
		c0.8,0.5,3.9,0.1,11.1-3.7c0.4-0.1,0.8,0,0.9,0.4c0.1,0.3,0,0.6-0.3,0.8c-3,1.8-6.1,4.5-6.1,5.5c0,0.1,0,0.1,0.1,0.3
		c1.9,1.2,6.6-0.8,8.1-1.7C214,188.9,214.1,188.8,214.3,188.8L214.3,188.8z"/>
	<path class="st1" d="M243.4,178.7c-0.4,0-0.6-0.4-0.6-0.8c0-0.3,0.3-0.5,0.5-0.5l50.5-8.8c-3.3-8.8-6.1-17.6-8.4-26.7
		c-5-20.3-5.8-35.8-2.3-45.8c0.1-0.4,0.5-0.5,0.8-0.4l0,0c0.4,0.1,0.5,0.5,0.4,0.9c-8.2,23.6,10.8,71.9,10.9,72.4
		c0.1,0.1,0.1,0.4,0,0.5c-0.1,0.1-0.3,0.3-0.5,0.4l-51.2,8.9V178.7z"/>
	<path class="st1" d="M210.9,257.4c-0.4,0-0.6-0.3-0.6-0.6V243c-0.1-0.4,0.1-0.8,0.5-0.8c0.4-0.1,0.8,0.1,0.8,0.5c0,0.1,0,0.3,0,0.4
		v13.8C211.5,257,211.3,257.3,210.9,257.4z"/>
	<path class="st1" d="M228.9,158.1c-0.4,0-0.6-0.3-0.6-0.6c-0.5-9.3-3-16.6-5.2-23c-1.5-3.7-2.6-7.7-3.1-11.7
		c-0.1-0.9-0.1-1.8-0.3-2.6c-0.8-7.2-1.3-12.9,3-25.6c0.1-0.4,0.5-0.5,0.8-0.4c0.4,0.1,0.5,0.5,0.4,0.8l0,0
		c-4.1,12.5-3.6,17.8-2.8,25.1c0.1,0.9,0.1,1.7,0.3,2.7c0.6,4,1.7,7.7,3.1,11.5c2.3,6.6,4.8,13.9,5.3,23.4
		C229.6,157.9,229.3,158.1,228.9,158.1L228.9,158.1z"/>
	<ellipse class="st0" cx="266.4" cy="218.5" rx="21.1" ry="6.3"/>
	<path class="st1" d="M266.4,225.6c-10.6,0-21.9-2.4-21.9-7.1s11.2-7.1,21.9-7.1c10.7,0,21.9,2.4,21.9,7.1S277,225.6,266.4,225.6z
		 M266.4,212.9c-12.1,0-20.5,3-20.5,5.7c0,2.7,8.5,5.7,20.5,5.7c12.1,0,20.5-3,20.5-5.7C286.9,215.8,278.5,212.9,266.4,212.9
		L266.4,212.9z"/>
	<path class="st0" d="M250.4,201.1l-0.5,0.1c-1.5,0.3-2.8,1-3.9,2.2c-1.2,1.7-1.2,4-0.1,5.7c2.2,4,7.7,5.2,12,5.5
		c0.6,0.1,1.2,0,1.8-0.1c0.6-0.3,1-0.8,1-1.4c0-0.5-0.4-0.9-0.8-1.2c-0.4-0.3-0.9-0.4-1.4-0.4c-2.7-0.3-5.3-0.9-7.7-1.9
		c-1.4-0.8-3.3-2.3-2.3-4.1c0.4-0.5,0.9-1,1.4-1.3c2.4-1.2,4.6-0.3,7.1,0.4c0.1,0,0.4,0.1,0.5,0.1c0.5,0,0.8-0.6,0.6-1
		c-0.1-1-1.2-1.7-2.1-2.1C254.3,201,252.4,200.9,250.4,201.1z"/>
	<path class="st1" d="M258.5,215.4c-0.3,0-0.5,0-0.8,0c-6.6-0.6-10.6-2.6-12.5-5.9c-1.2-2.1-1.2-4.5,0.1-6.4c1-1.3,2.6-2.2,4.4-2.4
		l0.5-0.1l0,0c1.9-0.3,4-0.1,5.9,0.6c1.5,0.6,2.4,1.5,2.4,2.7c0.1,0.9-0.5,1.7-1.3,1.8c-0.3,0-0.5,0-0.8-0.1l-0.6-0.1
		c-2.1-0.6-4-1.2-5.9-0.3c-0.5,0.3-0.9,0.5-1.2,1c-0.1,0.3-0.3,0.6-0.1,1c0.5,0.9,1.3,1.7,2.2,2.1c2.1,0.9,4.4,1.5,6.6,1.8l1,0.1
		c0.5,0,1.2,0.3,1.5,0.5c1,0.4,1.4,1.5,1,2.6c-0.3,0.5-0.6,0.9-1.3,1.2C259.4,215.4,258.9,215.4,258.5,215.4z M250.6,201.8l-0.5,0.1
		c-1.4,0.3-2.6,0.9-3.5,1.9c-1,1.5-1,3.5-0.1,5c1.7,3,5.4,4.6,11.5,5.3c0.5,0.1,1,0,1.4-0.1c0.4,0,0.6-0.4,0.6-0.8
		c0-0.3-0.3-0.5-0.5-0.5c-0.4-0.1-0.8-0.3-1.2-0.4l-1-0.1c-2.4-0.3-4.8-0.9-7-1.8c-1.3-0.6-2.3-1.7-2.8-3c-0.3-0.6-0.1-1.4,0.3-2.1
		c0.4-0.6,1-1.2,1.8-1.5c2.4-1.2,4.8-0.5,7,0.3l0.6,0.1c0.1,0,0.1,0,0.3,0c0.1-0.1,0.1-0.3,0.1-0.4c-0.1-0.8-1.2-1.3-1.7-1.5
		C254,201.7,252.4,201.5,250.6,201.8L250.6,201.8z"/>
	<path class="st0" d="M252.5,196.9c0,0,4,19.8,4.2,21c0.3,1.2,10.8,4.2,17.1,1.3l6.6-20.2L252.5,196.9z"/>
	<path class="st1" d="M267.3,221c-3.3,0-6.7-0.6-9.8-1.8c-0.9-0.4-1.3-0.8-1.4-1.2c-0.3-1.2-4.1-20.2-4.2-21c0-0.3,0-0.4,0.1-0.5
		c0.1-0.1,0.4-0.3,0.5-0.3l27.9,2.1c0.4,0,0.6,0.4,0.6,0.6v0.1l-6.6,20.2c0,0.1-0.1,0.3-0.4,0.4C271.9,220.6,269.6,221.1,267.3,221z
		 M253.3,197.5c1.4,7,3.9,19.2,4.1,20.1c0.6,0.8,9.9,3.6,16,1l6.2-19.2L253.3,197.5z"/>
	
		<ellipse transform="matrix(4.100160e-02 -0.9992 0.9992 4.100160e-02 58.243 455.6014)" class="st1" cx="266.5" cy="197.5" rx="6.1" ry="14"/>
	<path class="st1" d="M267.6,204.1h-1.4c-3.5-0.1-7-0.9-10-2.2c-2.8-1.4-4.4-3.2-4.2-5c0.1-1.8,1.8-3.6,4.6-4.6
		c6.7-2.2,13.9-1.9,20.3,0.8c2.8,1.4,4.4,3.2,4.2,5C281,201.5,275.2,204.1,267.6,204.1z M265.4,191.9c-2.8,0-5.7,0.4-8.4,1.4
		c-2.4,0.9-3.9,2.2-3.9,3.6c0,1.4,1.3,2.7,3.6,3.9c3.1,1.3,6.3,2.1,9.5,2.1c8,0.4,13.5-2.3,13.6-4.9h0.6h-0.8c0-1.3-1.3-2.7-3.6-3.9
		c-3.1-1.3-6.3-2.1-9.5-2.1L265.4,191.9z"/>
	<path class="st0" d="M249.9,18.3c0,0-13.6,0.5-17.6,7.1c-4,6.6-3.5,16.4-8.6,22.7s-11.5,19.8-8.2,26.8s37.1,8.8,54.9,0.8
		s18.7-22.4,17.3-31.5C286.1,34.9,279.9,9.9,249.9,18.3z"/>
	<path class="st1" d="M240.5,81.5c-1,0-1.9,0-3,0c-9.5-0.3-20.6-2.1-22.5-6.3c-3.3-7.1,2.7-20.7,8.2-27.4c2.7-3.3,3.9-7.9,4.9-12.2
		c0.6-3.6,1.9-7.1,3.6-10.3c4-6.6,16.9-7.3,18-7.3c10.2-2.8,18.8-2.1,25.4,2.2c9.7,6.3,12.5,18.9,13.3,24
		c1.5,10.3-0.4,24.3-17.6,32.2C263.2,79.5,252.1,81.5,240.5,81.5z M261.1,17.3c-3.7,0-7.5,0.6-11.1,1.7h-0.1
		c-0.1,0-13.3,0.5-17.1,6.7c-1.7,3.1-2.8,6.6-3.5,10c-1.2,4.5-2.2,9.1-5.2,12.7c-5.4,6.7-11.1,19.8-8.1,26.1
		c2.8,6.2,35.9,8.6,54.1,0.4c16.6-7.5,18.4-21,16.9-30.9c-0.8-4.9-3.3-17-12.7-23.2C270.4,18.4,265.8,17.1,261.1,17.3L261.1,17.3z
		 M249.9,18.3L249.9,18.3z"/>
	<path class="st1" d="M274.1,94.3c0,0-11.1,27-20.2,26.3c-9.1-0.8-8.9-20.9-8.9-20.9L274.1,94.3z"/>
	<path class="st1" d="M254.3,121.2h-0.4c-9.7-0.8-9.5-20.7-9.5-21.5c0-0.3,0.3-0.5,0.5-0.6l29.2-5.4c0.3,0,0.5,0,0.6,0.3
		c0.1,0.1,0.1,0.4,0.1,0.6C274.3,95.7,263.7,121.2,254.3,121.2z M245.5,100.2c0,3.1,0.6,19.1,8.4,19.7c6.8,0.5,15.7-16.7,19.2-24.9
		L245.5,100.2z"/>
	<path class="st0" d="M247.5,80.9L245,99.7c0,0,3.1,7.7,15.7,6.6c7.9-0.8,13.4-12,13.4-12l2.4-37c0,0-17.5-9.7-27.7-26.4
		c0,0-8.4,13.8-14.4,12.4c0,0-1.9,18.5,0.3,27.9S247.5,80.9,247.5,80.9z"/>
	<path class="st1" d="M258,107c-10.7,0-13.5-6.7-13.6-7.1c0-0.1,0-0.3,0-0.3l2.4-18.2c-2.4-0.3-10.4-1.7-12.4-10
		c-2.2-9.4-0.3-27.4-0.3-28.2c0-0.1,0.1-0.4,0.3-0.4c0.1-0.1,0.4-0.1,0.5-0.1c4.6,1,11.5-8.4,13.6-12.1c0.3-0.3,0.6-0.4,0.9-0.1
		c0.1,0,0.1,0.1,0.1,0.1c9.9,16.4,27.2,26,27.3,26.1c0.3,0.1,0.4,0.4,0.4,0.6l-2.4,37c0,0.1,0,0.1-0.1,0.3
		c-0.3,0.5-5.9,11.5-13.9,12.4C259.8,107,258.9,107,258,107z M245.7,99.6c0.5,1,3.9,7.1,15.1,5.9c7-0.6,12.2-10.3,12.9-11.5
		l2.4-36.3c-2.6-1.4-17.5-10.7-26.9-25.5c-1.9,3-8.4,12.2-13.8,11.8c-0.3,3.3-1.7,18.9,0.3,27c2.1,8.8,11.5,9,11.8,9
		c0.4,0,0.6,0.3,0.6,0.6c0,0,0,0,0,0.1L245.7,99.6z"/>
	<path class="st1" d="M246.2,90.8c4.4,0.5,8.8-1.2,11.6-4.5c5-5.7,3.9-6.7,3.9-6.7c-4.6,1.4-9.4,1.8-14.2,1.2L246.2,90.8z"/>
	<path class="st1" d="M247.7,91.6c-0.5,0-1.2,0-1.7-0.1c-0.4,0-0.5-0.4-0.5-0.8l1.3-9.9c0-0.4,0.4-0.6,0.6-0.5l0,0
		c4.6,0.6,9.4,0.3,13.9-1.2c0.3-0.1,0.5,0,0.6,0.1c0.1,0.1,0.5,0.6,0.1,1.9c-1,2.1-2.3,4-4,5.7C255.6,89.8,251.7,91.6,247.7,91.6z
		 M246.8,90.3c4,0.3,7.9-1.3,10.4-4.4c2.7-3,3.5-4.6,3.7-5.4c-4.2,1.2-8.6,1.5-13,1L246.8,90.3z"/>
	<path class="st0" d="M251.6,51c0,0-6.1,9.9-4.5,11.6c1.5,1.7,5.9,0.4,5.9,0.4"/>
	<path class="st1" d="M249.8,64c-1.2,0.1-2.3-0.3-3.1-1c-1.8-1.8,2.4-9.3,4.4-12.4c0.1-0.3,0.6-0.4,0.9-0.3s0.4,0.6,0.3,0.9
		c-3.1,5-5.3,10-4.6,10.7c1,1,4.1,0.5,5.3,0.1c0.4-0.1,0.6,0.1,0.8,0.4c0.1,0.4-0.1,0.6-0.4,0.8C252.1,63.9,251,64,249.8,64z"/>
	<ellipse transform="matrix(0.9923 -0.1238 0.1238 0.9923 -4.2052 32.5055)" class="st1" cx="259.5" cy="50.1" rx="1.5" ry="2.3"/>
	<ellipse transform="matrix(0.174 -0.9847 0.9847 0.174 151.7647 282.517)" class="st1" cx="244.3" cy="50.8" rx="2.3" ry="1.5"/>
	<path class="st1" d="M251.1,71.5c-3.3,0.1-6.6-1.8-8-4.9c-0.1-0.3,0-0.4,0.1-0.6c0.1-0.1,0.3-0.3,0.5-0.3c14.7,0,14.7,0.1,14.9,0.4
		c0.1,0.1,0.1,0.3,0.1,0.5c0,0.1,0,0.3-0.1,0.3c-0.1,0.1-3.1,4.4-6.8,4.6H251.1z M244.8,67c1.5,2.3,4.2,3.6,7.1,3.2
		c2.1-0.1,4-1.9,5-3.1C254.6,67.1,249,67,244.8,67L244.8,67z"/>
	<path class="st0" d="M278.9,51.1c0,0,5-21.6-4.4-30s-24.6-2.8-24.6-2.8s17.1-1,20.7,6.7s0.6,29.9,0.6,29.9L278.9,51.1z"/>
	<path class="st1" d="M271.3,55.5c-0.1,0-0.3,0-0.4-0.1c-0.1-0.1-0.3-0.4-0.3-0.6s2.8-22-0.6-29.5c-3.3-7.2-20-6.3-20.1-6.3
		c-0.3,0-0.6-0.1-0.6-0.5c-0.1-0.3,0.1-0.6,0.4-0.8c0.6-0.3,15.7-5.5,25.2,3c9.5,8.5,4.8,29.7,4.5,30.6c0,0.1-0.1,0.4-0.4,0.4
		l-7.6,3.6C271.6,55.4,271.4,55.4,271.3,55.5z M255.1,17.7c5.5,0.3,13.6,1.7,16.1,7.1c3.1,6.8,1.4,24.2,0.9,29l6.2-3
		c0.5-2.6,4.2-21.5-4.1-29.1C268.5,16.5,260.2,16.8,255.1,17.7z M278.9,51.1L278.9,51.1z"/>
	
		<ellipse transform="matrix(0.1903 -0.9817 0.9817 0.1903 166.7049 318.2518)" class="st0" cx="276.3" cy="58.1" rx="12.5" ry="9.4"/>
	<path class="st1" d="M274.6,70.2c-0.5,0-1,0-1.4-0.1c-5.4-1-8.8-7.7-7.5-14.8c0.5-3.2,2.2-6.3,4.6-8.5c2.1-2.1,4.9-3,7.9-2.6
		c5.4,1,8.8,7.7,7.5,14.8l0,0C284.3,65.4,279.5,70.2,274.6,70.2z M276.7,45.3c-2.1,0.1-4,0.9-5.4,2.3c-2.2,2.1-3.6,4.9-4.1,7.9
		c-1.3,6.4,1.7,12.5,6.4,13.4s9.7-3.6,10.9-10l0,0c1.3-6.4-1.7-12.5-6.4-13.4C277.5,45.3,277.1,45.2,276.7,45.3L276.7,45.3z"/>
	<path class="st1" d="M257.4,76.8c-0.4,0-0.6-0.3-0.6-0.6s0.3-0.6,0.6-0.6c4.6-0.3,12.4-1.2,13.6-2.8c1.5-1.9,2.6-7.9,2.8-10
		c0-0.4,0.4-0.6,0.8-0.5c0.4,0,0.6,0.4,0.5,0.8l0,0c0,0.4-1,8.1-3.1,10.7S258.8,76.6,257.4,76.8L257.4,76.8z"/>
	<path class="st0" d="M254.8,74.4l7.1-0.6c1-0.1,1.8,0.6,1.9,1.7l0,0c0.1,1-0.6,1.8-1.7,1.9l-7.1,0.6c-1,0.1-1.8-0.6-1.9-1.7l0,0
		C253.1,75.3,253.8,74.4,254.8,74.4z"/>
	<path class="st1" d="M254.9,78.7c-1.3,0-2.3-1-2.4-2.2c-0.1-1.3,0.9-2.4,2.2-2.6l7.1-0.6c0.6,0,1.3,0.1,1.8,0.5
		c1,0.9,1.2,2.4,0.3,3.5c-0.4,0.5-1,0.8-1.5,0.9l0,0l-7.1,0.6L254.9,78.7z M262.2,77.4L262.2,77.4z M262,74.4L262,74.4l-7.2,0.6
		c-0.6,0.1-1.2,0.6-1,1.3l0,0c0,0.3,0.1,0.6,0.4,0.8c0.3,0.3,0.5,0.3,0.8,0.3l7.1-0.6c0.6,0,1.2-0.6,1-1.3l0,0
		c0-0.3-0.1-0.5-0.4-0.8C262.5,74.6,262.3,74.4,262,74.4L262,74.4z"/>
	<path class="st0" d="M94,24.6c-20.9,0-37.6,12.5-37.6,27.9c0,9.1,5.9,17.1,14.9,22.3l8.4,12v-8.4c4.6,1.4,9.5,2.1,14.3,2.1
		c20.9,0,37.7-12.5,37.7-27.9S114.8,24.6,94,24.6z"/>
	<path class="st1" d="M79.7,87.3c-0.3,0-0.4-0.1-0.5-0.3l-8.4-11.7c-9.5-5.5-15.1-13.8-15.1-22.8C55.7,36.7,72.9,24,94,24
		s38.2,12.9,38.2,28.6S115.1,81.1,94,81.1c-4.6,0-9.3-0.6-13.6-1.9v7.5c0,0.3-0.1,0.5-0.4,0.6C79.8,87.3,79.8,87.3,79.7,87.3z
		 M94,25.3c-20.5,0-37,12.2-37,27.3c0,8.6,5.3,16.5,14.6,21.8c0.1,0,0.1,0.1,0.3,0.1L79,84.7v-6.3c0-0.3,0.1-0.4,0.3-0.5
		c0.1-0.1,0.4-0.1,0.5-0.1c4.6,1.4,9.4,2.1,14.2,2.1c20.5,0,37-12.2,37-27.3S114.5,25.3,94,25.3z"/>
	<circle class="st3" cx="76" cy="52.4" r="3.2"/>
	<circle class="st3" cx="94" cy="52.4" r="3.2"/>
	<circle class="st3" cx="112.1" cy="52.4" r="3.2"/>
	<path class="st0" d="M324.9,130.6L324.9,130.6c-0.4,0-0.6-0.4-0.6-0.8c2.6-29.9,12.9-40.6,13.3-40.9c0.3-0.3,0.8-0.1,0.9,0.1
		c0.3,0.3,0.3,0.6,0,0.8c-0.1,0.1-10.3,10.8-12.9,40.2C325.5,130.3,325.2,130.6,324.9,130.6z"/>
</g>
</svg>
