<?xml version="1.0" encoding="utf-8"?>
<!-- Generator: Adobe Illustrator 26.0.1, SVG Export Plug-In . SVG Version: 6.00 Build 0)  -->
<svg version="1.1" id="Layer_1" xmlns="http://www.w3.org/2000/svg" xmlns:xlink="http://www.w3.org/1999/xlink" x="0px" y="0px"
	 viewBox="0 0 400 300" style="enable-background:new 0 0 400 300;" xml:space="preserve">
<style type="text/css">
	.st0{fill:#180308;}
	.st1{fill:#FFFFFF;}
	.st2{fill:#EE1D52;}
	.st3{fill:#FDE8EE;}
	.st4{fill:#231F20;}
</style>
<g id="_105_fast_working">
	<path class="st0" d="M140.7,58.2H246c27.8,0,50.3,22.5,50.3,50.3c0,1.7-0.1,3.3-0.3,4.9l-9.9,101H100.5l-9.9-101
		c-2.6-27.7,17.5-52.3,45.2-55C137.5,58.4,139.2,58.2,140.7,58.2z"/>
	<path class="st0" d="M286.2,215.3H100.5c-0.4,0-0.7-0.3-0.7-0.6l-9.9-101c-2.8-28.1,17.8-53.1,45.9-55.7c1.7-0.1,3.3-0.3,5-0.3
		h105.3c28.2,0,51,22.8,51,51c0,1.7-0.1,3.3-0.3,5l-9.9,101C286.9,215,286.6,215.3,286.2,215.3z M101.2,213.9h184.4l9.9-100.5
		c2.6-27.2-17.2-51.6-44.6-54.2c-1.7-0.1-3.2-0.3-4.9-0.3H140.7c-27.4,0-49.6,22.2-49.6,49.6c0,1.7,0.1,3.2,0.3,4.9L101.2,213.9z"/>
	<path class="st1" d="M326.6,134.8c-8.1,4.4-52.8,8.6-59.6,11.8c-1.3,0.6-2.4,1.3-3.5,1.9c-10.8,7.2-18.1,24.5,0.8,26.1
		c5.8,0.6,56.7-18.3,77-26.8c4.4-1.8,19.3-9.6,18.2-12.5c-1.1-2.9-5.8-10.7-7.6-10.1s-15.7,7.1-15.7,7.1s3.9-11.5,0-11.1
		C332.3,121.6,326.6,134.8,326.6,134.8z"/>
	<path class="st0" d="M264.5,175.4h-0.3c-8.6-0.7-11.3-4.6-12.1-7.6c-1.7-6.8,4.2-15.4,10.8-19.7c1.1-0.8,2.4-1.4,3.6-2.1
		c3.2-1.5,13.5-3.1,25.6-4.9c13.8-2.1,29.2-4.4,33.9-6.8c1-2.2,6-13.5,10-13.9c0.7-0.1,1.4,0.1,1.8,0.7c1.5,1.8,0.3,6.9-0.6,9.7
		c3.6-1.7,12.8-6,14.3-6.4c2.8-0.7,7.8,8.3,8.6,10.6c1.7,4.3-18.3,13.3-18.6,13.5C323.2,156.2,271.8,175.4,264.5,175.4z
		 M336.4,121.8L336.4,121.8c-2.6,0.3-6.9,8.3-9,13.3c0,0.1-0.1,0.3-0.3,0.3c-4.6,2.5-19.7,4.9-34.6,7.1c-11.4,1.7-22.2,3.3-25.2,4.7
		c-1.3,0.6-2.4,1.3-3.5,1.9c-7.1,4.7-11.7,12.8-10.3,18.2c1,3.8,4.7,6,10.8,6.5h0.3c6.5,0,56.1-18.2,76.4-26.8
		c7.1-2.9,18.5-9.9,17.8-11.7c-1.4-3.6-5.7-9.7-6.8-9.7l0,0c-1.5,0.4-11.7,5.3-15.6,7.1c-0.3,0.1-0.6,0.1-0.8-0.1
		c-0.3-0.1-0.3-0.6-0.1-0.8c1.1-3.3,2.2-8.8,1.3-10C336.7,121.9,336.5,121.8,336.4,121.8z M326.6,134.8L326.6,134.8z"/>
	<path class="st1" d="M225.2,65.2c11.5-10.1,21.3-22.1,29-35.3l11.7,7.2C265.8,37.1,255.1,65.5,225.2,65.2z"/>
	<path class="st0" d="M225.5,65.9h-0.4c-0.4,0-0.7-0.3-0.7-0.7c0-0.3,0.1-0.4,0.3-0.6c11.4-10.1,21.1-22,28.9-35
		c0.1-0.1,0.3-0.3,0.4-0.3c0.1,0,0.4,0,0.6,0.1l11.7,7.2c0.3,0.1,0.4,0.6,0.3,0.8C266.3,37.7,255.4,65.9,225.5,65.9z M254.4,30.9
		C247,43.4,237.7,54.6,227,64.4c25.4-0.8,36.1-23.2,37.8-27.1L254.4,30.9z"/>
	<path class="st1" d="M225.2,65.2c13.1,1.4,26.1-2.2,36.7-9.9l2.5,16.1c0,0-16.8,8.8-41.8-1L225.2,65.2z"/>
	<path class="st0" d="M245.6,75.8c-8.1,0-16-1.7-23.5-4.6c-0.1-0.1-0.3-0.3-0.4-0.4c-0.1-0.1-0.1-0.4,0-0.6l2.8-5.3
		c0.1-0.3,0.4-0.4,0.7-0.4c12.8,1.3,25.7-2.2,36.1-9.7c0.1-0.1,0.4-0.1,0.7-0.1c0.3,0.1,0.4,0.3,0.4,0.6l2.4,16.1
		c0,0.3-0.1,0.6-0.4,0.7C264.5,72.1,257.3,75.8,245.6,75.8z M223.4,70.1c21.8,8.2,37.2,2.2,40.2,1l-2.1-14.5
		C251,63.8,238.4,67,225.6,66L223.4,70.1z"/>
	<path class="st2" d="M276.3,143.7c0,0-4.2-10.3-24-33.4c-9.6-11.1-35.2-15.3-42-15.7c1.5,0.1,5.8-2.2-23.5,0
		c-15,1.1-24.6,1.9-33.5,11.3c-16.7,17.8-52.8,55.6-52.8,55.6l38.1,10.8c0,0,6.1-4.3,8.5-7.4l-5.4,40.7l103,6l-0.8-46.7l10.6,8.6
		L276.3,143.7z"/>
	<path class="st2" d="M208.5,94.7c0,0,0.7,0,1.8,0C209.8,94.5,208.5,94.7,208.5,94.7z"/>
	<polygon class="st1" points="181.7,99 182.5,203.3 211.4,203.3 211.4,93.3 	"/>
	<path class="st0" d="M211.4,204h-28.9c-0.4,0-0.7-0.3-0.7-0.6l-1-104.4c0-0.3,0.3-0.6,0.6-0.6l29.7-5.7c0.3-0.1,0.7,0.1,0.7,0.4
		v0.1v110.1C212.1,203.7,211.9,204,211.4,204z M183.2,202.8h27.7V94.1l-28.5,5.4L183.2,202.8z"/>
	<path class="st0" d="M176,165.7c-0.3,0-0.4-0.1-0.6-0.4L162.9,139c-0.1-0.1-0.1-0.4,0-0.7l8.1-12l-7.9-5.8
		c-0.3-0.1-0.3-0.6-0.1-0.8l12.5-18.5c0.1-0.3,0.6-0.4,0.8-0.1l0,0c0.3,0.1,0.4,0.6,0.1,0.8l0,0l-12.2,17.9l7.9,5.8
		c0.3,0.1,0.3,0.6,0.1,0.8l-8.2,12.1l12.4,25.8c0.1,0.3,0,0.7-0.3,0.8C176.3,165.7,176.1,165.7,176,165.7z"/>
	<path class="st0" d="M216,165.7c-0.1,0-0.1,0-0.3,0c-0.3-0.1-0.4-0.6-0.3-0.8l12.4-25.8l-8.2-12.1c-0.1-0.3-0.1-0.7,0.1-0.8
		l7.9-5.8l-12.2-17.9c-0.1-0.3-0.1-0.7,0.1-0.8l0,0c0.3-0.1,0.7-0.1,0.8,0.1l0,0l12.6,18.5c0.1,0.3,0.1,0.7-0.1,0.8l-7.9,5.8l8.1,12
		c0.1,0.1,0.1,0.4,0,0.7l-12.5,26.3C216.6,165.5,216.3,165.7,216,165.7z"/>
	<path class="st1" d="M222.6,87.6c-0.1,0,3.2-17.8,3.5-19.3c1.9-10,3.5-19.2,2.5-27.4c-2.4,1.1-2.9,4.7-5,6.5
		c-0.7-7.6-1.1-15.1-1-22.8c-13.1,4.6-26.8,9.7-35.4,20.6l-1-16.3c-6,9.7-12.2,19.7-15.4,30.7c-3.2,11-1,21.4,1.7,32.2L222.6,87.6z"
		/>
	<path class="st0" d="M172.5,92.6c-0.3,0-0.6-0.3-0.7-0.6c-2.8-11.4-4.7-21.7-1.7-32.5c3.3-11.4,9.7-21.8,15.4-30.9
		c0.1-0.3,0.4-0.4,0.8-0.3c0.3,0.1,0.6,0.3,0.6,0.7l0.8,14.5c9-10.4,23.2-15.4,34.6-19.5c0.4-0.1,0.8,0.1,1,0.4c0,0.1,0,0.1,0,0.3
		c-0.1,7.1,0.1,14,0.8,21.1c0.3-0.4,0.6-1,0.8-1.5c0.7-1.5,1.8-2.9,3.2-3.9c0.3-0.1,0.4-0.1,0.7,0c0.1,0.1,0.3,0.3,0.4,0.6
		c1,8.3-0.7,17.8-2.6,27.5c-0.4,1.9-3.3,17.8-3.5,19.2c0,0.1,0,0.1,0,0.3c-0.1,0.3-0.3,0.4-0.6,0.4L172.5,92.6L172.5,92.6z
		 M185.7,31.1c-5.3,8.6-11.1,18.2-14.2,28.6s-1.1,20.3,1.5,31.3l49.1-4.2c0.1-1.8,0.8-6.4,3.3-18.8c1.8-9.2,3.3-18.1,2.6-26
		c-0.7,0.8-1.3,1.7-1.7,2.5c-0.6,1.3-1.3,2.2-2.2,3.2c-0.1,0.1-0.6,0.3-0.7,0.1c-0.3-0.1-0.4-0.3-0.4-0.6c-0.7-7.2-1-14.6-1-22
		c-11.5,4.2-25.6,9.3-34.2,20c-0.1,0.3-0.6,0.3-0.8,0.3c-0.3-0.1-0.4-0.3-0.6-0.7L185.7,31.1z"/>
	<path class="st1" d="M215.2,86.7c1.4-8.5,15.6-10.7,14.9-0.6c-0.1,3.5-1.4,6.8-3.8,9.5c-2.4,2.6-6.1,3.5-9.5,2.2"/>
	<path class="st0" d="M219.8,99.1c-1.1,0-2.2-0.3-3.2-0.7c-0.4-0.1-0.6-0.6-0.4-1c0.1-0.4,0.6-0.6,1-0.4c3.1,1.1,6.5,0.3,8.8-2.1
		c2.2-2.5,3.5-5.7,3.6-9c0.3-3.3-1.4-5.6-4.3-5.8c-4.3-0.4-8.2,2.5-9,6.7c0,0.4-0.4,0.7-0.8,0.6l0,0c-0.4,0-0.7-0.4-0.6-0.8
		c1-5,5.6-8.3,10.6-7.9c2.9,0.3,6,2.5,5.6,7.4c-0.1,3.6-1.5,7.2-4,9.9C224.9,98,222.4,99.1,219.8,99.1z"/>
	<path class="st1" d="M179.9,86.7c-1.4-8.5-15.6-10.7-14.9-0.6c0.1,3.5,1.4,6.8,3.8,9.5c2.4,2.6,6.1,3.5,9.5,2.2"/>
	<path class="st0" d="M175.3,99.1c-2.6,0-5.3-1.1-7.1-3.1c-2.4-2.8-3.8-6.3-3.9-9.9c-0.3-5,2.6-7.1,5.6-7.5c5-0.6,9.6,2.9,10.6,7.9
		c0.1,0.4-0.1,0.7-0.6,0.8l0,0c-0.4,0-0.7-0.1-0.8-0.6l0,0c-0.8-4.2-4.7-7.1-9-6.7c-3.1,0.3-4.6,2.5-4.3,5.8c0.1,3.3,1.4,6.5,3.6,9
		c2.2,2.4,5.7,3.2,8.8,2.1c0.4-0.1,0.8,0,1,0.4c0.1,0.4,0,0.8-0.4,1l0,0C177.5,99,176.4,99.2,175.3,99.1z"/>
	<polygon class="st1" points="182,126.1 196.1,137.7 211.4,129.3 212.4,93.8 182,93 	"/>
	<path class="st0" d="M196.1,138.4c-0.1,0-0.3,0-0.4-0.1l-14.3-11.7c-0.1-0.1-0.3-0.3-0.3-0.6V93c0-0.1,0.1-0.4,0.1-0.6
		c0.1-0.1,0.3-0.1,0.6-0.1l30.4,1c0.4,0,0.7,0.3,0.7,0.7l-1,35.3c0,0.3-0.1,0.6-0.4,0.6l-15.3,8.5
		C196.4,138.4,196.3,138.4,196.1,138.4z M182.7,125.8l13.6,11.1l14.5-8.1l1-34.3l-29-0.8V125.8z"/>
	<path class="st0" d="M182.9,107.2c0.3,1.7,8.9,12.4,28.9,13.6v-13.6c-4.7,0.7-11.1,3.1-16.3,2.5C191.3,109.5,187,108.7,182.9,107.2
		C182.3,106.9,183.5,107.6,182.9,107.2z"/>
	<path class="st0" d="M211.9,121.5L211.9,121.5c-18.9-1.1-28.4-11-29.5-13.8c-0.3-0.1-0.4-0.6-0.3-0.8c0.1-0.3,0.4-0.6,1.1-0.3l0,0
		c4,1.4,8.2,2.2,12.5,2.4c3.6,0.1,7.2-0.4,10.8-1.4c1.9-0.4,3.6-0.8,5.3-1.1c0.1,0,0.4,0,0.6,0.1c0.1,0.1,0.3,0.3,0.3,0.6v13.6
		c0,0.1-0.1,0.4-0.3,0.6C212.3,121.5,212,121.5,211.9,121.5z M184.5,108.6c2.6,3.2,10.8,10.3,26.7,11.5v-12.2
		c-1.4,0.3-2.9,0.6-4.4,1c-3.6,1.1-7.4,1.5-11.3,1.5C191.8,110.1,188.1,109.5,184.5,108.6z"/>
	<path class="st1" d="M195.7,112.9h2.2c10.8,0,19.6-8.8,19.6-19.6l0,0V70.2c0-4.9-6.7-7.8-10.7-8.3c-4.3-0.4-8.6-0.3-12.8,0.6
		c-10.3,1.7-18.2,5.4-18.1,17c0,4.6,0,9.2,0,13.8C176.1,104.1,185,112.9,195.7,112.9z"/>
	<path class="st0" d="M198.1,113.6h-2.2c-11.3,0-20.3-9-20.3-20.3c0-1.5,0-3.1,0-4.6c0-3.1,0-6.1,0-9.2
		c-0.1-13.1,9.9-16.4,18.6-17.8c4.3-0.8,8.6-1.1,12.9-0.6c4.7,0.8,11.3,4.2,11.3,9.2v23.1C218.4,104.4,209.2,113.6,198.1,113.6z
		 M203.1,62.3c-2.9,0.1-5.8,0.4-8.8,0.8c-12.4,1.9-17.5,6.8-17.4,16.3c0,3.1,0,6.1,0,9.2c0,1.5,0,3.1,0,4.6
		c0,10.4,8.5,18.9,18.9,18.9h2.2c10.4,0,18.8-8.5,18.8-18.9V70.2c0-4.2-6-7.1-10-7.6C205.6,62.3,204.3,62.3,203.1,62.3z"/>
	
		<ellipse transform="matrix(0.9978 -6.592721e-02 6.592721e-02 0.9978 -5.1655 13.5926)" class="st0" cx="203.4" cy="85.1" rx="1.3" ry="2.6"/>
	
		<ellipse transform="matrix(0.9976 -6.982627e-02 6.982627e-02 0.9976 -5.4239 13.301)" class="st0" cx="187.5" cy="84.2" rx="1.3" ry="2.8"/>
	<path class="st0" d="M192.1,106c-0.7,0-1.1,0-1.1,0c-0.4-0.1-0.6-0.6-0.4-1c0.1-0.3,0.3-0.4,0.6-0.4c6.3,0.1,12.4-2.1,17-6.3
		c0.3-0.3,0.7-0.3,1,0.1c0.3,0.3,0.3,0.7-0.1,1C204.3,103.5,198.4,105.9,192.1,106z"/>
	<path class="st0" d="M210.7,101.7c-0.1,0-0.1,0-0.3,0c-3.6-1.7-3.2-5.7-2.5-7.5c0.1-0.4,0.6-0.6,0.8-0.4l0,0c0.4,0.1,0.6,0.6,0.4,1
		c-0.1,0.1-1.5,4.3,1.7,5.7c0.4,0.1,0.6,0.6,0.3,1C211.2,101.6,211,101.7,210.7,101.7z"/>
	<path class="st0" d="M193.9,100.8c-0.4,0-1-0.3-1.3-0.6c-1.8-2.2,0.1-12.2,0.6-14.2c0.1-0.4,0.6-0.6,1-0.4c0.3,0.1,0.4,0.4,0.4,0.7
		c-1,4.6-1.8,11.7-0.8,12.9c2.6,0,4.4-3.1,4.6-3.1c0.1-0.3,0.7-0.4,1-0.3l0,0c0.3,0.3,0.4,0.7,0.3,1
		C199.5,97,197.1,100.8,193.9,100.8z"/>
	<path class="st0" d="M198.9,84.8c-0.3,0-0.6-0.3-0.7-0.6c-0.1-0.4,0.1-0.8,0.6-0.8c1.1-0.3,4.7-3.3,6.7-4.9c1-0.8,1.7-1.4,2.1-1.7
		c0.3-0.3,0.8-0.1,1,0.1c0.3,0.3,0.1,0.8-0.1,1c-0.3,0.3-1.1,0.8-1.9,1.5c-3.2,2.6-5.8,4.7-7.1,5.1L198.9,84.8z"/>
	<path class="st0" d="M190.2,84.8c-0.1,0-0.3,0-0.4-0.1c-3.1-2.1-6.7-4.2-7.2-4.4c-0.4-0.1-0.7-0.4-0.6-0.8c0-0.3,0.3-0.6,0.6-0.6
		c0.3-0.1,0.7-0.1,8.1,4.7c0.3,0.3,0.4,0.7,0.1,1C190.7,84.6,190.5,84.8,190.2,84.8z"/>
	<polygon class="st1" points="395.7,267 2.7,267 46.3,185.1 351.9,185.1 	"/>
	<path class="st0" d="M395.7,267.7H2.7c-0.3,0-0.4-0.1-0.6-0.3c-0.1-0.3-0.1-0.4,0-0.7L45.9,185c0.1-0.3,0.4-0.4,0.6-0.4h305.5
		c0.3,0,0.6,0.1,0.6,0.4l43.8,81.9c0.1,0.3,0,0.7-0.3,1C395.9,267.7,395.9,267.7,395.7,267.7L395.7,267.7z M3.8,266.3h390.7
		L351.5,186H46.8L3.8,266.3z"/>
	<path class="st1" d="M301.8,196.7l-57-14.3c0,0-28.6,45-42.8,54.2l68.2,19.6C270.2,256.1,298.4,211.3,301.8,196.7z"/>
	<path class="st0" d="M270.1,257h-0.1l-68.2-19.7c-0.4-0.1-0.6-0.6-0.4-0.8c0-0.1,0.1-0.3,0.3-0.4c14-9,42.4-53.6,42.7-54.1
		c0.1-0.3,0.4-0.4,0.7-0.3L302,196c0.4,0.1,0.6,0.4,0.6,0.8l0,0c-3.5,14.6-30.7,58-31.8,59.9C270.6,256.8,270.4,257,270.1,257z
		 M203.5,236.4l66.3,19c2.9-4.6,27.4-44.2,31.1-58.4l-55.9-14C242,187.9,217.4,226,203.5,236.4z"/>
	<path class="st3" d="M276.3,244.2h-0.3c-17.9-6.4-45.3-16.1-47.1-16.4c-0.4,0-0.7-0.4-0.6-0.8c0-0.4,0.4-0.7,0.8-0.6
		c2.4,0.3,42.8,14.7,47.4,16.4c0.4,0,0.7,0.4,0.6,0.8C277,244.1,276.8,244.2,276.3,244.2L276.3,244.2z"/>
	<path class="st3" d="M281.9,235c-0.1,0-0.1,0-0.3,0c-17.9-6.4-45.3-16.1-47.1-16.3c-0.4,0-0.7-0.4-0.6-0.8c0-0.4,0.4-0.7,0.8-0.6
		c2.4,0.3,42.8,14.7,47.4,16.4c0.4,0,0.7,0.4,0.6,0.8C282.6,234.9,282.3,235.2,281.9,235L281.9,235z"/>
	<path class="st3" d="M289.4,223.5c-0.1,0-0.1,0-0.3,0c-17.9-6.5-45.3-16.1-47.1-16.3c-0.4,0-0.7-0.4-0.6-0.8c0-0.4,0.4-0.7,0.8-0.6
		c2.4,0.3,42.8,14.7,47.4,16.4c0.4,0,0.7,0.4,0.6,0.8C290.1,223.3,289.7,223.6,289.4,223.5L289.4,223.5z"/>
	<path class="st3" d="M294.4,211.1h-0.3c-17.9-6.4-45.3-16.1-47.1-16.3c-0.4,0-0.7-0.4-0.6-0.7l0,0c0-0.4,0.4-0.7,0.8-0.6
		c2.4,0.3,42.8,14.7,47.4,16.4c0.4,0.1,0.6,0.6,0.4,0.8l0,0C295,211,294.7,211.1,294.4,211.1z"/>
	<path class="st1" d="M259.5,211.8c0,0,7.6,40,13.3,49.1c0,0,55.5-2.6,69.8-13.1c0,0-23.1-31.1-27-45.4L259.5,211.8z"/>
	<path class="st0" d="M272.9,261.6c-0.3,0-0.4-0.1-0.6-0.3c-5.7-9-13.1-47.7-13.3-49.2c0-0.1,0-0.4,0.1-0.6c0.1-0.1,0.3-0.3,0.4-0.3
		l56.1-9.6c0.4,0,0.7,0.1,0.8,0.6c3.8,14,26.5,44.9,26.8,45.2c0.1,0.1,0.1,0.3,0.1,0.6c0,0.1-0.1,0.3-0.3,0.4
		C328.7,258.8,275.2,261.4,272.9,261.6L272.9,261.6z M260.4,212.4c1,5.3,7.8,38.9,12.9,47.7c5-0.3,54.2-3.1,68.4-12.5
		c-3.2-4.3-22.4-31-26.4-44.5L260.4,212.4z"/>
	<polygon class="st1" points="157.9,193.3 140,243.8 229.1,247.1 212.4,193.3 	"/>
	<path class="st0" d="M229.1,247.8L229.1,247.8l-89.1-3.3c-0.3,0-0.4-0.1-0.6-0.3c-0.1-0.1-0.1-0.4-0.1-0.6l17.9-50.4
		c0.1-0.3,0.4-0.4,0.7-0.4h54.5c0.3,0,0.6,0.1,0.7,0.6l16.7,53.8c0.1,0.3,0,0.4-0.1,0.6C229.5,247.8,229.4,247.8,229.1,247.8z
		 M141,243.1l87.1,3.3L211.9,194h-53.5L141,243.1z"/>
	<rect x="2.7" y="267" class="st1" width="393" height="19.3"/>
	<path class="st0" d="M395.7,287H2.7c-0.4,0-0.7-0.3-0.7-0.7V267c0-0.4,0.3-0.7,0.7-0.7h393c0.4,0,0.7,0.3,0.7,0.7v19.3
		C396.4,286.6,396,287,395.7,287z M3.4,285.6h391.5v-17.9H3.4V285.6z"/>
	<polygon class="st0" points="180.9,176.9 194.9,202.6 195,203.7 195.7,209.9 191,206 190,205.1 176,179.4 	"/>
	<path class="st0" d="M195.7,210.6c-0.1,0-0.3,0-0.4-0.1l-5.7-4.7l-0.1-0.1l-14-25.7c-0.1-0.3,0-0.7,0.3-1l0,0l4.7-2.6
		c0.1-0.1,0.4-0.1,0.6,0c0.1,0,0.3,0.1,0.4,0.3l14,25.7c0,0.1,0,0.1,0,0.3l0.8,7.4c0,0.3-0.1,0.6-0.3,0.7
		C196,210.6,195.9,210.6,195.7,210.6z M190.6,204.7l4.2,3.5l-0.7-5.4l-13.6-25l-3.6,1.9L190.6,204.7z"/>
	<path class="st0" d="M173.2,172.8l3.5-1.9c0.7-0.4,1.5-0.1,1.9,0.6l6.7,12.2l0,0l-5.8,3.2l0,0l-6.7-12.2
		C172.4,174,172.7,173.2,173.2,172.8L173.2,172.8z"/>
	<path class="st0" d="M179.3,187.5h-0.1c-0.1,0-0.3-0.1-0.4-0.3l-6.7-12.2c-0.3-0.4-0.3-1-0.1-1.5c0.1-0.6,0.6-1,1-1.3l3.5-1.9
		c1-0.6,2.2-0.1,2.8,0.8l6.7,12.2c0.1,0.3,0,0.7-0.3,1l0,0l-5.8,3.2C179.6,187.5,179.5,187.5,179.3,187.5z M177.4,171.4
		c-0.1,0-0.3,0-0.3,0.1l-3.5,1.9l0,0c-0.1,0.1-0.3,0.3-0.3,0.4c-0.1,0.1-0.1,0.3,0,0.6l6.4,11.7l4.7-2.5l-6.4-11.7
		C177.8,171.5,177.5,171.4,177.4,171.4z M173.2,172.8L173.2,172.8z"/>
	<path class="st0" d="M176.1,187.5c-0.3,0-0.6-0.1-0.6-0.4c-0.1-0.3-3.5-6.4-3.9-7.2c-0.4-0.8,0.1-4.2,0.3-5.4
		c0.1-0.4,0.4-0.7,0.8-0.6c0.4,0,0.7,0.4,0.6,0.8l0,0c-0.4,1.5-0.6,3.1-0.4,4.6c0.3,0.7,2.9,5.4,3.9,7.1c0.1,0.3,0.1,0.8-0.3,1l0,0
		C176.4,187.5,176.3,187.5,176.1,187.5z"/>
	<path class="st1" d="M126.7,167.2c-11.5-5.4-29.5-11.8-34.2,5.1c-2.5,8.8,2.2,17.9,10.8,20.8c20.7,7.6,77.8,15.6,77.8,15.6
		s5.6-1,7.5-4.6c1.9-3.6,6.9,0.3,9.7-2.2c2.8-2.5,0.8-7.1-1.8-10.7c-2.6-3.6-11.3-4-13.5-3.6s-7.6,3.6-7.6,3.6
		c-5.1,3.1-17.6-7.6-22-10.1c-8.1-4.6-16.4-9-24.9-13.1L126.7,167.2z"/>
	<path class="st0" d="M181.3,209.6L181.3,209.6c-0.7-0.1-57.5-8.1-78.1-15.6c-8.9-3.1-13.8-12.6-11.3-21.7c1.4-5,4-8.3,7.8-10.1
		c7.9-3.6,19.5,0.8,27.4,4.4l0,0c0.7,0.3,1.5,0.7,2.1,1c8.3,4,16.8,8.5,24.9,13.2c1,0.6,2.4,1.5,3.9,2.6c5.1,3.6,13.6,9.6,17.2,7.5
		c0,0,5.6-3.3,7.9-3.8c2.1-0.4,11.1-0.1,14,3.9c3.6,5,4.3,9.3,1.7,11.5c-1.4,1.3-3.5,1.1-5.1,0.8c-2.2-0.3-3.6-0.3-4.4,1.1
		C187.3,208.5,181.6,209.4,181.3,209.6L181.3,209.6z M106.6,162.1c-2.2,0-4.3,0.4-6.4,1.3c-3.3,1.5-5.8,4.7-6.9,9.3
		c-2.4,8.3,2.2,17.2,10.4,20.2c19.9,7.4,74.9,15.1,77.7,15.6c0.7-0.1,5.4-1.3,6.9-4.2c1.3-2.4,3.6-2.1,5.7-1.8
		c1.7,0.1,3.2,0.4,4.2-0.6c2.9-2.6-0.7-8.2-1.9-9.9c-2.4-3.3-10.6-3.9-12.8-3.3c-2.6,1-5.1,2.1-7.5,3.6c-4.3,2.5-12.6-3.2-18.6-7.5
		c-1.5-1.1-2.9-2.1-3.9-2.6c-8.1-4.6-16.4-9-24.9-13.1l-2.1-1l0,0C120.8,165.1,113.2,162.1,106.6,162.1z"/>
	<path class="st1" d="M168.5,72.3c0,0,35.9,15.1,58.2,1.7l2.4-15.1c0,0-34.7,7.8-57.1-5.3c-1.5,3.1-2.6,6.3-3.3,9.6
		C168.1,66.2,168.1,69.2,168.5,72.3z"/>
	<path class="st0" d="M203.8,80.1c-18.1,0-35.3-7.1-35.4-7.2c-0.1-0.1-0.4-0.3-0.4-0.4c-0.4-3.1-0.4-6.3,0.1-9.3
		c0.7-3.3,1.9-6.7,3.5-9.7c0.1-0.1,0.3-0.3,0.4-0.3c0.1,0,0.3,0,0.6,0c22,12.6,56.4,5.3,56.7,5.1c0.1,0,0.4,0,0.6,0.1
		c0.1,0.1,0.3,0.4,0.1,0.6l-2.4,15.1c0,0.1-0.1,0.4-0.3,0.4C220.1,78.7,211.9,80.1,203.8,80.1z M169,71.7
		c3.6,1.4,36.4,13.9,57.1,1.7l2.2-13.9c-5.6,1.1-35.9,6.1-56.1-5.1c-1.4,2.8-2.4,5.8-3.1,8.8C168.8,66,168.6,68.9,169,71.7L169,71.7
		z"/>
	<path class="st0" d="M191,133.4l3.2,5.4c0,0-2.2,18.9,5.6,29.7c7.8,10.8,51.7-15.8,51.7-15.8l1.4-15h-15.7c0,0-21.3,27.4-31.1,20.8
		c-8.8-5.7-7.9-20.8-7.9-20.8l5.7-4.3l-7.1-6.3L191,133.4z"/>
	<path class="st0" d="M206.4,171.8c-3.2,0-5.7-0.8-7.2-2.8c-7.4-10.4-5.8-27.7-5.7-30l-3.1-5.1c-0.1-0.3-0.1-0.6,0.1-0.8l5.8-6.3
		c0.3-0.3,0.7-0.3,1,0l7.1,6.3c0.1,0.1,0.3,0.3,0.3,0.6c0,0.1-0.1,0.4-0.3,0.6l-5.4,4.2c0,2.2,0,14.9,7.6,19.9
		c9.3,6.1,30-20.4,30.2-20.7c0.1-0.1,0.3-0.3,0.6-0.3h15.7c0.4,0,0.7,0.3,0.7,0.7l0,0l-1.4,15c0,0.3-0.1,0.4-0.3,0.6
		C250.3,154.1,221.2,171.8,206.4,171.8z M191.8,133.6l2.9,4.9c0.1,0.1,0.1,0.3,0.1,0.4c0,0.1-2.1,18.8,5.4,29.3
		c6,8.5,38.2-8.5,50.4-15.8l1.4-13.9h-14.6c-2.4,3.1-22,27.2-31.8,20.7c-8.9-5.8-8.2-20.8-8.2-21.4c0-0.1,0.1-0.4,0.3-0.6l5-3.9
		L197,128L191.8,133.6z"/>
	<path class="st0" d="M201.7,125.2c-12.5,0-19-5.1-19.5-5.4c-0.3-0.3-0.4-0.7-0.1-1c0.3-0.3,0.7-0.4,1-0.1c0.1,0.1,10,7.8,28.1,4.2
		c0.4-0.1,0.7,0.1,0.8,0.6l0,0c0.1,0.4-0.1,0.7-0.6,0.8C208.2,124.8,204.9,125.2,201.7,125.2z"/>
	<path class="st4" d="M147.2,165.8c-0.3,0-0.6-0.1-0.7-0.4l-7.2-18.3c-0.1-0.4,0-0.8,0.4-1s0.8,0,1,0.4l0,0l7.2,18.3
		c0.1,0.4,0,0.8-0.4,1C147.4,165.8,147.2,165.8,147.2,165.8z"/>
	<path class="st1" d="M336.1,196.5l-51.7,5.4c0,0,6.4,44.1,10.1,53.2c0,0,47,3.5,71-10.4C365.6,244.7,336.4,204.7,336.1,196.5z"/>
	<path class="st0" d="M307.2,256.3c-7.6,0-12.6-0.4-12.8-0.4c-0.3,0-0.6-0.1-0.6-0.4c-3.8-9.2-10-51.7-10.1-53.5
		c0-0.1,0-0.4,0.1-0.6c0.1-0.1,0.3-0.3,0.4-0.3l51.7-5.4c0.1,0,0.4,0,0.6,0.1c0.1,0.1,0.3,0.3,0.3,0.6c0.3,6.4,19.3,34,29.3,47.8
		c0.1,0.1,0.1,0.4,0.1,0.6c0,0.1-0.1,0.4-0.3,0.4C349.7,254.8,323,256.3,307.2,256.3z M295,254.6c4.7,0.3,47,2.5,69.5-10
		c-3.8-5.1-27.5-38.1-29-47.3l-50.3,5.3C285.9,208.2,291.5,245.4,295,254.6z"/>
	<path class="st1" d="M334.3,62.7l-8.1,28.6c0,0,34.9,0.4,47.1-14.6l4.6-29.6C377.9,47.1,344.4,64.1,334.3,62.7z"/>
	<path class="st0" d="M326.5,92.2h-0.3c-0.3,0-0.4-0.1-0.6-0.3c-0.1-0.1-0.1-0.4-0.1-0.6l8.1-28.6c0.1-0.3,0.4-0.6,0.7-0.6
		c9.7,1.4,42.8-15.3,43.1-15.6c0.3-0.1,0.6-0.1,0.7,0c0.3,0.1,0.3,0.4,0.3,0.7L373.9,77c0,0.1-0.1,0.3-0.1,0.3
		c-5.1,6.4-14.7,10.8-28.5,13.2C339.2,91.5,332.9,92,326.5,92.2z M334.8,63.5l-7.6,27.2c5.6,0,34.6-1.1,45.4-14.2l4.3-28.2
		C371,51.4,344.6,64.1,334.8,63.5z"/>
	<polygon class="st0" points="112.8,247.1 146,216.1 56.9,208.9 24.8,237.2 	"/>
	<path class="st0" d="M112.8,247.8L112.8,247.8l-88-9.7c-0.3,0-0.6-0.3-0.6-0.4c-0.1-0.3,0-0.6,0.3-0.7l32.1-28.4
		c0.1-0.1,0.3-0.1,0.6-0.1l88.9,7.2c0.3,0,0.6,0.1,0.6,0.4c0.1,0.3,0,0.6-0.1,0.7l-33.1,31C113.2,247.8,113,247.8,112.8,247.8z
		 M26.5,236.8l86.2,9.6l31.7-29.7l-87.1-7.1L26.5,236.8z"/>
	<polygon class="st1" points="112.8,247.1 96.2,177.5 9.9,170.7 24.8,237.2 	"/>
	<path class="st0" d="M112.8,247.8L112.8,247.8l-88-9.7c-0.3,0-0.6-0.3-0.6-0.6L9.2,171c0-0.3,0-0.4,0.1-0.6
		c0.1-0.1,0.4-0.3,0.6-0.3l86.3,6.8c0.3,0,0.6,0.3,0.6,0.6l16.5,69.6c0,0.3,0,0.4-0.1,0.6C113.2,247.7,113,247.8,112.8,247.8z
		 M25.3,236.7l86.4,9.6l-16.3-68.1l-84.9-6.7L25.3,236.7z"/>
	<path class="st3" d="M63.3,219.6c-2.9-0.1-5.7-1.3-7.9-3.1c-1.9-2.1-3.6-4.4-5.1-6.9c-0.1-0.3-0.1-0.6,0.1-0.8l1.9-2.1
		c0.1-0.1,0.3-0.3,0.6-0.3c0.3,0,0.4,0.1,0.6,0.3c2.1,2.6,5.7,3.6,8.9,2.5l0,0c2.2-1,4.2-2.8,5.3-5c0.1-0.6,0.3-1,0.3-1.5
		c0-0.6,0.1-1.3,0.4-1.8c0.1-0.3,0.6-0.7,3.6-0.1c0.3,0,0.6,0.3,0.6,0.7v3.8c0.3,1,1.5,7.1,0,9.3c-1.8,2.8-4.9,4.7-8.2,5.3
		C64,219.6,63.6,219.6,63.3,219.6z M51.8,209.3c1.3,2.2,2.8,4.3,4.6,6.1c2.2,1.8,5,2.8,7.8,2.6c2.9-0.4,5.6-2.2,7.2-4.7
		c1-1.3,0.4-5.7-0.3-8.2V205v-3.2c-0.6-0.1-1.1-0.1-1.8-0.1c0,0.1,0,0.7-0.1,1c0,0.7-0.1,1.4-0.4,1.9c-1.3,2.6-3.5,4.6-6.1,5.7l0,0
		c-3.5,1.4-7.5,0.4-10-2.2L51.8,209.3z M62.6,209.7L62.6,209.7z"/>
	<path class="st3" d="M213.4,236L213.4,236l-63.5-1.5c-0.4,0-0.7-0.3-0.7-0.7l0,0c0-0.4,0.3-0.7,0.7-0.7l0,0l0,0l63.4,1.5
		c0.4,0,0.7,0.3,0.7,0.7l0,0C214.1,235.7,213.8,236,213.4,236z"/>
	<path class="st3" d="M170.7,223.5c-9.2,0-16.1,0-16.5-0.1c-0.4,0-0.7-0.4-0.6-0.8c0.1-0.4,0.4-0.7,0.8-0.6c1.4,0.1,37.8,0,57,0l0,0
		c0.4,0,0.7,0.3,0.7,0.7c0,0.4-0.3,0.7-0.7,0.7C203.5,223.5,184.6,223.5,170.7,223.5z"/>
	<path class="st3" d="M206.3,211.5L206.3,211.5l-10.6-1c-0.4,0-0.7-0.4-0.7-0.7l0,0c0-0.4,0.4-0.7,0.7-0.7l0,0l10.4,1
		c0.4,0,0.7,0.3,0.7,0.7S206.7,211.5,206.3,211.5L206.3,211.5z"/>
	<path class="st1" d="M330.8,158.6c0,0,1.1-32.9,18.9-50l47.4,13.8c0,0-25.8,27.9-25.4,51.3L330.8,158.6z"/>
	<path class="st0" d="M371.7,174.3c-0.1,0-0.1,0-0.3,0l-40.9-15c-0.3-0.1-0.4-0.4-0.4-0.7c0-0.3,1.4-33.5,19.2-50.4
		c0.1-0.1,0.4-0.3,0.7-0.1l47.4,13.8c0.3,0.1,0.4,0.3,0.6,0.6c0.1,0.3,0,0.6-0.1,0.7c-0.3,0.3-25.6,28.1-25.3,50.7
		c0,0.3-0.1,0.4-0.3,0.6C372,174.3,371.8,174.3,371.7,174.3z M331.5,158l39.5,14.3c0.3-12,6.9-24.9,12.8-33.6
		c3.6-5.7,7.8-11,12.1-16.1L350,109.2C334,124.9,331.8,153.9,331.5,158L331.5,158z"/>
	<path class="st3" d="M382.1,126.9H382l-32.7-9.5c-0.4-0.1-0.6-0.6-0.4-0.8c0.1-0.4,0.4-0.6,0.8-0.4l0,0l32.7,9.5
		c0.4,0,0.7,0.4,0.6,0.8C382.8,126.9,382.5,127,382.1,126.9L382.1,126.9z"/>
	<path class="st3" d="M377.4,136.5h-0.1l-32.7-9.5c-0.4-0.1-0.6-0.6-0.4-0.8c0.1-0.4,0.4-0.6,0.8-0.4l0,0l32.7,9.5
		c0.4,0,0.7,0.4,0.6,0.8S377.8,136.5,377.4,136.5L377.4,136.5z"/>
	<path class="st3" d="M373.3,146.5h-0.1l-32.7-9.5c-0.4-0.1-0.6-0.6-0.4-0.8c0.1-0.4,0.4-0.6,0.8-0.4l0,0l32.7,9.5
		c0.4,0.1,0.6,0.6,0.4,0.8C373.9,146.2,373.8,146.5,373.3,146.5z"/>
	<path class="st3" d="M359.4,155.4h-0.1l-23.2-6.7c-0.4-0.1-0.6-0.4-0.4-0.8l0,0c0.1-0.4,0.6-0.6,0.8-0.4l23.2,6.7
		c0.4,0.1,0.6,0.6,0.4,0.8S359.7,155.4,359.4,155.4z"/>
	<path class="st3" d="M365.6,79.5h-0.1c-0.1,0-0.7-0.1-0.7-1c0-0.1,0-0.3,0.1-0.4c0.6-2.5,2.6-15.3,4-24c0-0.4,0.4-0.7,0.8-0.6
		c0.4,0,0.7,0.4,0.6,0.8C366.5,78.3,366.3,79.5,365.6,79.5z"/>
	<path class="st3" d="M358.6,83.1h-0.1c-0.1,0-0.7-0.1-0.7-1c0-0.1,0-0.3,0.1-0.4c0.6-2.5,2.6-15.3,4-24c0-0.4,0.4-0.7,0.8-0.6l0,0
		c0.4,0,0.7,0.4,0.6,0.8l0,0C359.6,81.7,359.3,83.1,358.6,83.1z"/>
	<path class="st3" d="M351.1,84.5H351c-0.1,0-0.7-0.1-0.7-1c0-0.1,0-0.3,0.1-0.4c0.6-2.5,2.6-15.3,4-24c0.1-0.4,0.4-0.7,0.8-0.6
		c0.4,0,0.7,0.4,0.6,0.8l0,0C352.1,83.3,351.8,84.5,351.1,84.5z"/>
	<path class="st3" d="M344,88.3h-0.1c-0.1,0-0.7-0.1-0.7-1c0-0.1,0-0.3,0.1-0.4c0.6-2.5,2.6-15.3,4-24c0-0.4,0.4-0.7,0.8-0.6
		c0.4,0,0.7,0.4,0.6,0.8C345,86.9,344.9,88.3,344,88.3z"/>
	<path class="st3" d="M336.5,89.2h-0.1c-0.1,0-0.7-0.1-0.7-1c0-0.1,0-0.3,0.1-0.4c0.6-2.5,2.6-15.3,4-23.9c0-0.4,0.4-0.7,0.8-0.6
		l0,0c0.4,0,0.7,0.4,0.6,0.8C337.6,87.8,337.3,89.2,336.5,89.2z"/>
	<path class="st1" d="M306.8,39.9c0,0-0.4,7.4,6.1,17.2c0,0,13.8-21.3,22.2-24.6S312.9,26.1,306.8,39.9z"/>
	<path class="st0" d="M312.8,57.8c-0.3,0-0.4-0.1-0.6-0.3c-6.5-10-6.3-17.4-6.3-17.6c0-0.1,0-0.1,0-0.3c4.3-9.6,20-11.4,27.5-10.1
		c2.4,0.4,3.5,1,3.6,1.9c0.1,1-1.4,1.7-1.9,1.9c-8.2,3.2-21.8,24-22,24.3C313.2,57.7,313,57.8,312.8,57.8L312.8,57.8z M307.3,40
		c0,1,0.1,7.4,5.4,15.8c2.8-4.2,14.3-21,22-23.9c0.3-0.1,0.7-0.3,1-0.4c-0.8-0.6-4.7-1.4-10.3-0.8C321.2,31,310.8,32.8,307.3,40z"/>
	<path class="st1" d="M337.8,49.8c0,0-10.7-17.8-31.1-10c4-9,9-17.6,14.9-25.6c0,0,11.3-3.9,26.3,8.6
		C347.8,22.9,342.9,41.7,337.8,49.8z"/>
	<path class="st0" d="M337.8,50.5L337.8,50.5c-0.3,0-0.4-0.1-0.6-0.3c-0.4-0.7-10.7-17.2-30.3-9.7c-0.3,0.1-0.6,0-0.7-0.1
		c-0.1-0.1-0.3-0.6-0.1-0.7c4.2-9,9.2-17.6,14.9-25.7c0.1-0.1,0.1-0.3,0.3-0.3c0.4-0.1,11.8-3.9,27,8.8c0.1,0.1,0.3,0.4,0.3,0.7
		c-0.1,0.7-5,19-10.1,27.1C338.3,50.3,338,50.5,337.8,50.5z M316.8,37.1c11.8,0,18.9,8.5,21,11.4c4.4-7.6,8.6-22.7,9.3-25.3
		c-13.3-11-23.5-8.8-25-8.3c-5.3,7.5-10,15.4-13.9,23.8C310.9,37.7,313.9,37.3,316.8,37.1z"/>
	<path class="st3" d="M336,40c-0.1,0-0.1,0-0.3,0c-0.4-0.1-0.6-0.6-0.4-0.8l0,0l5.6-16.4c0.1-0.4,0.6-0.6,0.8-0.4
		c0.4,0.1,0.6,0.6,0.4,0.8l-5.7,16.3C336.5,39.9,336.2,40,336,40z"/>
	<path class="st3" d="M329.3,35.9c-0.1,0-0.1,0-0.3,0c-0.4-0.1-0.6-0.6-0.4-0.8l5.6-16.1c0.1-0.4,0.4-0.6,0.8-0.6
		c0.4,0.1,0.6,0.4,0.6,0.8v0.1L330,35.4C329.8,35.7,329.7,35.9,329.3,35.9z"/>
	<path class="st3" d="M321.2,33.8c-0.1,0-0.1,0-0.3,0c-0.3-0.1-0.6-0.6-0.4-1c6.4-15.3,6.8-15.4,7.4-15.4c0.4,0,0.7,0.3,0.8,0.6
		c0,0.3,0,0.6-0.3,0.7c-0.7,1-4.3,9.6-6.5,14.7C321.8,33.6,321.5,33.8,321.2,33.8z"/>
	<path class="st1" d="M66.6,119.1c0,0-27-3.3-33.8-14.5c-4.4-7.2,6.5-31.5,6.5-31.5s3.8,14,13.6,16.1c9.9,2.1,16.1,3.1,16.1,3.1
		S61.5,112,66.6,119.1z"/>
	<path class="st0" d="M66.6,119.8L66.6,119.8c-1.3-0.1-27.4-3.6-34.5-14.9c-4.6-7.4,6.1-31.3,6.5-32.2c0.1-0.3,0.4-0.4,0.7-0.4
		c0.3,0,0.6,0.3,0.6,0.6c0,0.1,3.8,13.6,13.1,15.7c9.7,2.1,16.1,2.9,16.1,3.1c0.3,0,0.4,0.1,0.6,0.3c0.1,0.1,0.1,0.4,0,0.6
		c-0.1,0.1-7.4,19.6-2.5,26.3c0.1,0.3,0.1,0.6,0,0.8C67,119.7,66.9,119.8,66.6,119.8z M39.2,75.1c-2.4,5.6-9.5,23.5-5.8,29.2
		c5.8,9.3,26.4,13.1,32,14c-3.3-7.2,1.5-21.8,2.8-25.4c-2.1-0.3-7.6-1.3-15.4-2.9C44.7,88.1,40.6,78.9,39.2,75.1z"/>
	<path class="st3" d="M37,103.7c-0.4,0-0.7-0.3-0.7-0.6c-0.7-6.7,3.5-18.2,3.8-18.6c0.1-0.4,0.6-0.6,0.8-0.4
		c0.4,0.1,0.6,0.6,0.4,0.8c0,0.1-4.3,11.7-3.6,18.1C37.7,103.4,37.4,103.7,37,103.7L37,103.7z"/>
	<path class="st1" d="M36.3,108.6c0,0-0.6-6.4,2.5-10.6l-6-6.4C32.9,91.5,28.3,102.9,36.3,108.6z"/>
	<path class="st0" d="M36.3,109.2c-0.1,0-0.3,0-0.4-0.1c-8.3-6-3.8-17.6-3.8-17.8c0.1-0.3,0.3-0.4,0.6-0.4c0.3,0,0.4,0,0.7,0.3
		l6,6.4c0.3,0.3,0.3,0.6,0.1,0.8c-2.8,3.9-2.4,10-2.4,10.1c0,0.3-0.1,0.6-0.3,0.7C36.6,109.2,36.5,109.2,36.3,109.2z M33.1,92.8
		c-0.8,2.6-2.2,9.7,2.5,14.2c0-3.2,0.8-6.3,2.4-9L33.1,92.8z"/>
	<path class="st3" d="M43.3,109.2L43.3,109.2c-0.4,0-0.7-0.3-0.7-0.7l0,0c0-0.4,0.4-12,3.2-18.9c0.1-0.4,0.6-0.6,0.8-0.4l0,0
		c0.4,0.1,0.6,0.6,0.4,0.8l0,0c-2.6,6.7-3.1,18.3-3.1,18.3C44,109,43.7,109.2,43.3,109.2z"/>
	<path class="st3" d="M50.5,111.5c-0.4,0-0.7-0.3-0.7-0.7c-0.1-7.6,3.1-17.4,3.2-17.8c0.1-0.4,0.6-0.6,0.8-0.4
		c0.3,0.1,0.6,0.6,0.4,0.8c0,0.1-3.3,9.9-3.2,17.2C51.2,111.1,50.9,111.3,50.5,111.5L50.5,111.5L50.5,111.5z"/>
	<path class="st3" d="M57.7,113.1c-0.4,0-0.7-0.3-0.7-0.7l0,0c0-4.3,0.3-8.8,1.1-12.9c0.1-0.4,0.4-0.6,0.8-0.6
		c0.4,0,0.6,0.4,0.6,0.8l0,0c-0.7,4.2-1.1,8.5-1.1,12.6C58.4,112.9,58.1,113.1,57.7,113.1z"/>
</g>
</svg>
