<svg width="28" height="28" viewBox="0 0 28 28" fill="none" xmlns="http://www.w3.org/2000/svg">
<path d="M13.9993 26.8336C21.087 26.8336 26.8326 21.0879 26.8326 14.0003C26.8326 6.91266 21.087 1.16699 13.9993 1.16699C6.91168 1.16699 1.16602 6.91266 1.16602 14.0003C1.16602 21.0879 6.91168 26.8336 13.9993 26.8336Z" fill="#FE2C55"/>
<path fill-rule="evenodd" clip-rule="evenodd" d="M14.8258 7.73038L20.1981 13.1027C20.4259 13.3305 20.4259 13.6998 20.1981 13.9276L19.3731 14.7526C19.1453 14.9804 18.776 14.9804 18.5482 14.7526L15.1675 11.372V19.5415C15.1675 19.8637 14.9064 20.1248 14.5842 20.1248H13.4175C13.0954 20.1248 12.8342 19.8637 12.8342 19.5415V11.372L9.45359 14.7526C9.22578 14.9804 8.85643 14.9804 8.62863 14.7526L7.80367 13.9276C7.57586 13.6998 7.57586 13.3305 7.80367 13.1027L13.1759 7.73038C13.6315 7.27477 14.3702 7.27477 14.8258 7.73038Z" fill="white"/>
</svg>
